<?xml version="1.0" encoding="UTF-8"?>
<svg version="1.1" viewBox="0 0 2048 906" width="434" height="192" xmlns="http://www.w3.org/2000/svg">
<path transform="translate(0)" d="m0 0h2048v906h-2048z" fill="#F0322A"/>
<path transform="translate(1591,362)" d="m0 0h13l13 2 15 5 11 6 9 8 7 12 2 9 1 10v134l-1 1h-26l-3-7-1-12-11 7-13 8-15 6-19 2-14-1-12-3-12-7-7-7-7-14-3-15 1-13 3-12 4-8 7-9 8-8 16-8 13-4 18-3 18-1h18v-21l-2-10-6-10-9-6-7-2-17-1-17 2-25 6-7 2-3-9-2-9v-4l18-7 22-6z" fill="#FEFDFD"/>
<path transform="translate(1241,363)" d="m0 0h28l17 4 12 6 10 8 6 10 4 11 1 5v142h-27l-2-4-1-15-18 11-16 8-12 3h-26l-12-3-10-5-9-8-5-8-4-13-1-5v-15l4-16 5-9 9-10 8-6 15-7 15-4 15-2 18-1h18l-1-21-3-12-6-9-12-6-5-1h-26l-29 6-6 2-5-1-4-17 1-4 16-6 19-5z" fill="#FEFDFD"/>
<path transform="translate(731,22)" d="m0 0 5 5 7 15 5 16 1 7v24l-3 17-6 18-8 17-12 18-8 10-11 13-22 22-8 7-10 9-11 9-13 12-8 7-10 9-8 10-9 12-9 16-5 14-3 15v9l3 17 5 15 8 16 12 20 10 14 9 13 10 15 4 7-1 4-10-9-45-45-9-11-10-12-11-17-9-17-6-18-1-5v-17l3-13 6-12 7-10 8-10 11-12 15-15 11-9 13-11 28-22 14-12 11-9 12-11 8-7 10-11 11-15 9-16 7-17 4-18 2-20-2-21z" fill="#FEFDFD"/>
<path transform="translate(1372,366)" d="m0 0h11l9 28 14 46 12 40 7 30 4-9 11-33 10-39 8-38 4-22 1-2 36-1 2 1-1 11-9 40-10 37-12 36-10 27-8 18-6 13h-45l-4-8-20-65-15-49-10-31-8-26v-3z" fill="#FEFDFD"/>
<path transform="translate(1121,301)" d="m0 0h27v209l-1 27-3 20-4 13-7 12-12 13-10 8-14 8-5 3h-5l-12-13-4-5 1-4 14-10 9-9 6-10 4-12 2-17v-200l1-32z" fill="#FEFDFD"/>
<path transform="translate(456,697)" d="m0 0h13l8 2-2 2-22 4-19 5-12 5-12 6-5 5v7l5 4 15 6 25 6 25 4 49 5 36 2 30 1h56l35-1 74-5 45-5 32-5 29-6 19-6 10-5 6-5 2-3v-8l-1-6 6 4 3 3 1 3v7l-4 6-7 6-8 5-24 10-29 9-26 6-41 7-45 5-36 3-48 2h-61l-33-1-40-3-43-4-40-5-43-7-14-5-8-6-3-5v-6l7-9 9-7 12-7 20-8 20-6 26-5z" fill="#FEFDFD"/>
<path transform="translate(821,184)" d="m0 0 3 1-20 12-23 14-18 13-10 7-17 13-10 9-13 13-10 15-6 14-1 6v12l5 16 8 15 11 16 12 18 5 10 3 12v12l-3 13-6 12-6 9-9 10-11 11-12 9-3 2h-6l6-8 6-10 3-6 2-10v-10l-4-15-6-11-13-16-12-18-9-19-5-17-1-7v-14l4-20 8-16 8-11 11-13 14-12 14-10 19-12 29-15 17-7 11-5 31-11z" fill="#FEFDFD"/>
<path transform="translate(534,642)" d="m0 0h3l-1 5-2 6 5 4 15 4 25 3 28 2h47l33-3 32-5 5-1h8l15 8 21 9 5 2v2l-10 4-25 8-29 7-32 5-21 2h-49l-33-4-23-5-21-7-15-8-7-7-2-7 1-7 4-5 9-6z" fill="#FEFDFD"/>
<path transform="translate(515,554)" d="m0 0 4 1-6 10 1 8 4 2 4 3 13 3 29 3 32 2h47l36-3 43-5 26-5h11l4 5 19 11 4 2-2 2-33 8-32 6-39 5-23 2-19 1h-48l-24-2-36-5-19-5-17-7-10-9-2-3v-6l4-6 9-8 16-8z" fill="#FEFDFD"/>
<path transform="translate(542,460)" d="m0 0h8l-3 2-25 8-18 6-18 8-10 8-1 4 4 4 10 4 16 3 23 2 20 1h65l64-3 36-3 73-9 23-4h5l-5 4-26 13-18 5-34 6-37 5-36 3-39 2h-89l-51-4-29-5-15-4-12-6-5-4-1-5 10-8 25-12 30-10 25-6 27-4z" fill="#FEFDFD"/>
<path transform="translate(940,750)" d="m0 0h2l1 3-6 9-10 10-15 10-17 8-33 10-34 7-36 5-50 5-27 2-22 1h-87l-36-2-48-5-30-5-25-7-4-3 11 1 36 4 38 3 47 2h67l55-3 54-5 40-6 36-7 32-8 27-9 19-9 14-10z" fill="#FEFDFD"/>
<path transform="translate(868,453)" d="m0 0h20l15 3 14 7 10 8 8 10 6 12 2 8v16l-5 16-6 11-8 10-13 13-20 13-19 10-25 10-23 8h-6l4-4 16-8 15-9 16-12 10-8 8-8 10-13 8-13 5-15v-16l-5-15-8-11-9-6-10-5-7-2-14-1-12 3-9 1 5-5 11-5z" fill="#FEFDFD"/>
<path transform="translate(1270,462)" d="m0 0h12l1 29v15l-5 5-8 6-12 6-10 3h-14l-10-4-7-7-4-9-1-12 3-12 4-6 6-5 12-5 14-3z" fill="#F0322A"/>
<path transform="translate(1619,462)" d="m0 0h5l1 1v43l-4 5-14 9-13 5-4 1h-13l-11-4-7-8-3-7-1-13 2-10 3-6 7-7 12-5 7-2 9-1z" fill="#F0322A"/>
<path transform="translate(732,139)" d="m0 0h1l-1 7-3 2-2 6-2 1-3 6-2 1-3 7-9 11-8 7-5 6-2 4h-3l-1 3-8 7-2 4-5 3-10 9-5 4h-2l-2 4-4 2-3 3-2 4-5 2-9 8-1 2h-2l-2 4-4 4h-2l-2 5-4 4-2 3h-2l-2 5-6 9-1 4h-2l-2 4-6 15-1 2-1 5-1 4v13l1 4 3 16v8l1 4 3 1-1 4 3-1 3 6v5l1 4h2l3 6 3 1v2l5 3v2l3 1 4 8 3 3v2h2l6 15 1 5-5-5-15-22-11-17-7-12-7-16-5-19-1-8v-9l3-15 5-14 9-16 10-13 10-12 8-7 14-13 11-9 13-12 8-7 12-11 17-17 9-11 11-15z" fill="#F0414D"/>
<path transform="translate(907,716)" d="m0 0 2 2-1 7-3 6-3 1-2 4-5 3h-4l-1 3-8 3-9 4-14 5-16 5-36 8-37 6-41 5-19 2-20 2-21 1-46 1h-23l-63-2-28-2-31-3-10-1h-14l-14-2-9-2-28-4-25-4v-2l-7-1-4-3 5 1 18 4 47 7 44 5 47 4 17 1 33 1h61l48-2 56-5 38-5 38-7 30-8 23-8 18-8 11-8 4-5z" fill="#F1424E"/>
<path transform="translate(419,507)" d="m0 0 11 6 15 5 27 5 29 3 29 2h89l53-3 39-4 44-7 18-4 4 1-15 5-35 6-15 2-15 3-33 2-22 2-18 1-51 1-33-1-29-1-16-2-11-1-12-2-16-2-9-3-11-2-8-3-7-4-2-2z" fill="#F1424E"/>
<path transform="translate(783,196)" d="m0 0 3 1-30 13-20 10-17 10-12 8-13 10-13 11-11 13-10 16-5 13-3 16v14l3 15 6 16 9 17 10 14 12 15 7 13 3 13v10l-3 12-6 11-1-2 4-8 2-11v-15l-4-11-6-10-10-12-4-7-7-8-8-14-3-8-1-5-4-12-2-14v-18l3-13 2-3 3-10 10-16 2-3h2v-2h2l2-5 3-3 1-2 7-4 8-8 10-6 8-7 9-5 10-6 17-9 24-10z" fill="#F1424E"/>
<path transform="translate(796,201)" d="m0 0 2 1-6 4-3 5-5 3-5 1-2 3h-2l-1 3-10 5h-2l-2 5h-2v2l-11 7-7 6-1 2h-2l-2 4-8 8h-2l-2 4-5 6h-2l-6 12-2 3h-2l-1 6-3 3-4 16 2 3 5 15 5 9v3h2l4 8v3l2 1 1 3-2 2-7-10-9-16-4-10-2-8v-12l2-9 8-16 9-12 19-19 20-15 11-8 20-14z" fill="#F0414D"/>
<path transform="translate(517,552)" d="m0 0h4l1 3-5 6 3 1-1 4-1 2 1 2 11 5 13 3 33 3 18 2 22 1h31l5-1 15-2h20l16-1v-2l7-2 32-5h14l3 2-16 2-28 5-45 5-27 2h-47l-42-3-24-3-10-3-6-5-2-4 1-6 5-8h-5l1-2z" fill="#F0414D"/>
<path transform="translate(481,578)" d="m0 0h1l2 8 7 7 12 6 18 6 21 4 33 4 15 1h48l31-2 36-4 36-6 36-8 8-3-10-5 3-1 10 5v3l-11 4-13 4-7 1-10 3-6 1-20 3-8 2-20 2-5 1-20 2-11 1h-59l-26-1-17-1-28-5-12-3-17-6-12-7-3-3-2-6z" fill="#F1424E"/>
<path transform="translate(724,656)" d="m0 0h14l21 10 5 5 10 4v4l-13 5-20 7-13 4-1 1-17 3-7 2-14 2h-7l-4 1-17 2h-40l-36-2-13-2-19-4-21-6-16-8-8-6-3-6-2-8 3-3 3 12 9 8 17 8 24 7 22 4 26 3h49l28-3 30-5 31-8 26-9h2v-2l-10-3-24-11-7-4-8-1z" fill="#F1424E"/>
<path transform="translate(937,761)" d="m0 0v3l-5 8h-2v2l-5 4-4 4-6 2-25 9-11 5-19 4-18 5-24 5-14 3-11 1-3 1-6 1h-14l-9 1-2 1h-39l-3 1h-106v-1l82-1 35-2 45-4 42-5 34-6 24-6 24-8 17-8 14-10z" fill="#F1424E"/>
<path transform="translate(469,697)" d="m0 0 10 1v4l-19 3-18 4-12 4-3 3h-2v2h-2v2l-6 2-5 4h-2v7l10-1h3v3l3 1v2l5 2 11 4 22 4 14 3 8 2 27 2 15 2 12 1v1h-16l-49-5-30-5-23-6-14-6-4-4v-7l9-8 18-8 17-5 20-4 7-1-6-2z" fill="#F1424E"/>
<path transform="translate(1148,302)" d="m0 0h1l1 154v76l-3 16-4 18-4 10-5 7-2 5-3 5-8 7-4 3-4 2-9 6-5 2-5 3h-8l-8-6-3-6 1-3 8 8 3 4 7-1 14-8 12-9 8-8 9-13 5-12 3-16 1-9 1-27z" fill="#F1424E"/>
<path transform="translate(1270,462)" d="m0 0h12l1 29v15l-2 3-2-1v-3l1-3v-32l-1-2 1-3-4 1-18 1-9 1-10 2-10 3-9 8-1 5 1 2-1 9h-1v6l2 4 2 6 8 7 9 2h15l8-4h5l-4 3-15 5h-14l-10-4-7-7-4-9-1-12 3-12 4-6 6-5 12-5 14-3z" fill="#F1424E"/>
<path transform="translate(942,496)" d="m0 0 2 4v18l-4 15-4 7-1 5-12 12-4 5-5 5-3 1-2 4-5 4-12 6-1 2-5 2-3 1v2l-9 3-11 5-9 4-9 2-13 4-9 3h-5l-2-3 5-2-1 2 7-1 31-11 24-11 14-8 16-11 14-14 9-14 5-12 2-8z" fill="#F1424E"/>
<path transform="translate(1619,462)" d="m0 0h5l1 1v43l-3 3-1-43-13 1-18 1-7 2-9 2-6 3-2 3h-2l-1 3-3 1-2 7-1 11 2 6v6l-2-2-2-9 1-14 4-9 7-7 12-5 7-2 9-1z" fill="#F1424E"/>
<path transform="translate(744,499)" d="m0 0h11v1l-52 6-45 3-45 2h-65l-20-1v-1h61l4-1 3 1 5-1h23l29-1 13-1 21-3 32-3h16z" fill="#F1424E"/>
<path transform="translate(1287,530)" d="m0 0h2l1 3 1 12 1 3 27 1v1h-28l-2-4h-2l-1-10-8 5-4 2-12 5-17 6-8 1h-16l-14-2-16-8-5-5-1-2 2-2 8 7 10 5 12 3h26l12-3 16-8z" fill="#F1424E"/>
<path transform="translate(1674,364)" d="m0 0 14 1 8 1v8l-2 6-6 1h-8v-2l-5-1 1-4 3-4-5 1v9l-4 1-3-5 1-4 1-6z" fill="#F0414C"/>
<path transform="translate(925,759)" d="m0 0 3 1-15 8-21 8-28 8-36 8-36 6h-7v-1l30-5 8-3h9l8-1v-2l18-5 17-4 25-8 15-6 7-2z" fill="#F0414D"/>
<path transform="translate(735,383)" d="m0 0 3 4 3 10v19l-5 18-3 7-2 3h-2l-2 6h-2l-2 5-4 2-1 3-10 6-5 5-11 8-12 7h-3l1-4 9-10v3l-2 2 7-1 11-9 8-7 11-11 6-9 6-10 4-12 1-6v-12l-3-12z" fill="#F1424E"/>
<path transform="translate(492,480)" d="m0 0 3 1-6 2-1 4h-2l-1 5 1 3 6 1-1 2 6 3 3 2 19 3v1l9 1v1h-14l-21-3-12-4-6-4-1-4 5-6 11-7z" fill="#F1424E"/>
<path transform="translate(1312,387)" d="m0 0 5 4 2 5 2 10v123l-1 20h-1l-1-142-3-11z" fill="#F1424E"/>
<path transform="translate(896,705)" d="m0 0 2 1 1 6v8l-4 5-10 7-14 5-23 6-33 6-49 6-11 1h-13v-1l49-5 14-4 20-1 26-5 16-5 16-6 11-6 2-4v-8l-1-5z" fill="#F1424E"/>
<path transform="translate(742,571)" d="m0 0h14l3 2-16 2-28 5-45 5-13 1h-10l1-3 10-1 9-1h20l16-1v-2l7-2z" fill="#F1424E"/>
<path transform="translate(1230,390)" d="m0 0h26l10 3 9 6 6 10 2 10v21l-36 2h-9v-1l22-2 18-1v-4h3l-2-5v-16l-3-5-6-8-8-5-10-3h-14l-18 2h-5l4-2z" fill="#F1424E"/>
<path transform="translate(535,647)" d="m0 0 1 2 3 1 2 4 16 4 25 3 2 1v2h11l14 1 45 1v1h-47l-39-3-19-3-10-3-6-5z" fill="#F1424E"/>
<path transform="translate(857,461)" d="m0 0 14 1 11 4 13 7 8 9 5 10 3 10v16l-3 9h-1v-6l2-4v-11l-4-15-5-5-5-6v-2l-3-1v-2l-5-2-10-5-6-2-1-2h-18l-11 4h-5v-3l9-1z" fill="#F0414D"/>
<path transform="translate(1660,399)" d="m0 0 2 4 1 9v137l-5 2h-21l-5-2-1-3-1-11-4-3 5-2 1 2 2 14 1 2h26v-134z" fill="#F1424E"/>
<path transform="translate(590,400)" d="m0 0 7 6 35 35-4 1-5-5-7-6v-2h-2v-2l-5-2-6-6-6-7-3-2-4-5v-2h-2v-2z" fill="#F0414D"/>
<path transform="translate(1624,533)" d="m0 0 2 1-8 8-6 2-8 4-14 5-7 1h-21l-11-1-14-6v-2l-5-2 3-2 12 7 12 3 14 1 19-2 15-6 15-9z" fill="#F1424E"/>
<path transform="translate(1612,396)" d="m0 0 4 2 6 9 2 5 1 7v21l-2 1h-17l-25 1v-1l5-1 24-2 4-1h6l1-3h2l-2-21-6-10z" fill="#F0414D"/>
<path transform="translate(1674,364)" d="m0 0 8 1 5 8-1 5-4 1-1-6-2-1v-2l-5 1v9l-4 1-3-5 1-4 1-6z" fill="#F1424E"/>
<path transform="translate(729,20)" d="m0 0 3 1 1 11 2 21-2 20-4 18-7 17-1-4 3-7 3-9 3-13 1-12 1-13-2-17-1-5z" fill="#F1424E"/>
<path transform="translate(1530,387)" d="m0 0 2 4 2 8 22-6 15-3 20-1 13 2 6 3v1l-9-1-5-2h-19l-20 3-13 4-2 2-7 1-3-2-2-7z" fill="#F1424E"/>
<path transform="translate(1562,516)" d="m0 0 3 2h4l7 3 11 1 12-2 9-3 3 1-11 5-10 3h-13l-11-4-4-4z" fill="#F0414D"/>
<path transform="translate(709,657)" d="m0 0h15v1l-29 5-27 3h-14v-1l12-1 7-3 18-1h14l1-2z" fill="#F0414C"/>
<path transform="translate(1415,469)" d="m0 0 2 3 1 5h2l3 20 3-1 4 2-2 9-3 4-3-9-6-26z" fill="#F1424E"/>
<path transform="translate(1449,538)" d="m0 0 1 3-4 9-2 1-33 1h-9l-5-5 1-3 2 4 45 1 3-9z" fill="#F1424E"/>
<path transform="translate(1590,361)" d="m0 0h16l16 3 7 1h5l7 5-1 3-6-2-13-5-8-2-9-1h-23v-1z" fill="#F1424E"/>
<path transform="translate(1469,363)" d="m0 0h16l2 1 12 1v1l-5 1h-31l2-3z" fill="#F1424E"/>
<path transform="translate(591,361)" d="m0 0h2l1 4 3 1-1 4 3-1 3 6v5l1 4h2l3 6-1 2-6-9-8-16z" fill="#F1424E"/>
<path transform="translate(1177,485)" d="m0 0 1 4-1 6v15l3 12-1 3-4-9-1-9v-13z" fill="#F1424E"/>
<path transform="translate(550,458)" d="m0 0h7l-3 3-27 9h-5l4-2 21-7-5-1v-1z" fill="#F1424E"/>
<path transform="translate(732,139)" d="m0 0h1l-1 7-3 2-2 6-2 1-3 6-4 1 2-4z" fill="#F1424E"/>
<path transform="translate(540,639)" d="m0 0 3 1v2l-4 3h-2v-3l-17 7-4 1 2-4 10-3 8-3z" fill="#F1424E"/>
<path transform="translate(796,201)" d="m0 0 2 1-6 4-3 5-5 3-4-1 4-5z" fill="#F1424E"/>
<path transform="translate(880,562)" d="m0 0 4 1-8 8-9 7-2-1z" fill="#F1424E"/>
<path transform="translate(1680,367)" d="m0 0h3l4 6-1 5-4 1-2-7z" fill="#FEFDFD"/>
<path transform="translate(1629,365)" d="m0 0h5l7 5-1 3-6-2-7-3v-2z" fill="#F0414C"/>
<path transform="translate(759,573)" d="m0 0 7 3 4 2v2l2 1 3 3-2 1-11-7-3-3z" fill="#F1424E"/>
<path transform="translate(709,657)" d="m0 0h15v1l-22 4h-7v-1l10-1 1-2z" fill="#F1424E"/>
<path transform="translate(644,446)" d="m0 0 3 3 3 6v2l-5-1-8-7 1-2 7 6z" fill="#F1424E"/>
<path transform="translate(1649,377)" d="m0 0 7 6 2 6-2 2-7-11z" fill="#F03F47"/>
<path transform="translate(1692,367)" d="m0 0h3l-1 11h-3l1-4h-2l1-6z" fill="#FEFDFD"/>
<path transform="translate(857,461)" d="m0 0m-6 1h6v1l-14 4-7 1v-3l9-1z" fill="#F1424E"/>
<path transform="translate(1670,367)" d="m0 0h4l1 4-2 4v4l-3-1z" fill="#FEFDFD"/>
<path transform="translate(697,142)" d="m0 0v3l-12 12-3 1v-2h2l1-3h2l2-4z" fill="#F1424E"/>
<path transform="translate(517,552)" d="m0 0h4l1 3-6 7-1-2 3-5h-5l1-2z" fill="#F1424E"/>
<path transform="translate(906,527)" d="m0 0 1 3-5 10-2-1 2-6z" fill="#F0414C"/>
<path transform="translate(929,473)" d="m0 0 6 2 2 3-1 5-4-5-3-3z" fill="#F0414C"/>
</svg>
