<?xml version="1.0" encoding="UTF-8"?>
<svg version="1.1" viewBox="0 0 2048 906" width="434" height="192" xmlns="http://www.w3.org/2000/svg">
<path transform="translate(0)" d="m0 0h2048v906h-2048z" fill="#1156E8"/>
<path transform="translate(998,5)" d="m0 0h43l32 2 30 5 28 7 30 9 26 11 17 9 16 11 12 11 10 11 8 13 6 13 1 3 1 129v42l-1 20-4 37-4 20-7 22-8 17-7 11-9 11-9 8-13 8-13 6-23 6-30 5-21 2-29 1-130 1-31 2-24 3-14 3-1 2-9 1-12 5-8 6-7 4-6 5-7 8-7 10-9 16-5 13-8 32-5 32-3 38-2 42-1 6-25 1h-74l-15-3-12-5-11-6-11-9-7-7-12-16-9-15-12-24-14-41-6-26-3-18-2-19-1-16v-46l2-26 4-28 6-26 9-30 7-20 11-21 10-14 8-10 12-12 14-9 12-5 18-4 15-1h58l61-1 129-1h69v-3l-18 1-121-1-66-1-15-1-3-1-1-21 1-83 3-14 8-16 8-10 10-10 14-11 15-10 16-8 16-7 27-9 41-10 31-5z" fill="#3A6B97"/>
<path transform="translate(1290,243)" d="m0 0h72l12 2 17 8 9 7 11 11 14 21 9 17 11 27 5 15 6 31 5 33 2 23v36l-3 32-6 37-5 21-7 20-9 21-8 16-12 17-11 12-10 8-19 10-11 2h-337l-3 2-1 4v22l2 9 5 9 5 4 4 1 31 1h168l4-1 1 1v61l-1 16-3 10-7 11-9 10-11 11-14 10-25 13-21 7-14 3-32 3h-50l-34-3-28-5-21-6-21-9-21-11-15-10-10-8-10-9-11-11-9-11-10-13-9-15-9-17-8-19-7-22-8-34-6-25-1-14v-15l1-21 4-28 7-27 6-17 5-9 11-13 12-9 14-7 15-4 24-4 9-1 28-1 113-1 40-2 37-4 26-5 9-2 7-2 16-6 16-9 11-8 10-9 8-10 6-9h3l-2 5-9 13-8 9-14 11-13 8-10 5-24 8-23 5-19 2-52 2h57l27-3 21-6 24-10 11-6 12-9 12-12 9-13 11-21 8-22 5-22 5-33 3-40 1-37-3-1v-1z" fill="#FDC243"/>
<path transform="translate(998,5)" d="m0 0h43l32 2 30 5 28 7 30 9 26 11 17 9 16 11 12 11 10 11 8 13 6 13 1 3 1 129v42l-1 20-4 37-4 20-7 22-8 17-7 11-9 11-9 8-13 8-13 6-23 6-30 5-21 2-29 1-130 1-31 2-24 3-14 3-1 2-9 1-12 5-8 6-7 4-6 5-7 8-7 10-9 16-5 13-8 32-5 32-3 38-2 42-1 6-25 1h-74l-15-3-12-5-11-6-11-9-7-7-12-16-9-15-12-24-14-41-6-26-3-18-2-19-1-16v-46l2-26 4-28 6-26 9-30 7-20 11-21 10-14 8-10 12-12 14-9 12-5 18-4 15-1h58l61-1 129-1h69v-3l-18 1-121-1-66-1-15-1-3-1-1-21 1-83 3-14 8-16 8-10 10-10 14-11 15-10 16-8 16-7 27-9 41-10 31-5zm12 16-29 2-28 4-25 6-25 7-13 5-9 4-13 7-12 8-6 5-3 6-7 11-4 8-1 18v92l20 1h179l2 20-1 13-5 10-6 5-38 2-39 1-180-2-44-1h-43l-15 3-12 6-12 13-9 13-10 18-5 12-3 10-1 7-1 17v60l3 37 6 34 8 27 9 22 11 23 11 18 9 12 9 11 17 17 12 9 14 8 24 10 30 12 5-51 4-28 4-19 2-9 6-21 3-8 8-15v-3h2v-3h2l8-11 10-11 3-2v-2l4-2 14-9 10-4 7-3 21-5 36-4 21-1 87-1 49-1 26-1 27-3 23-4 22-6 14-7 10-8 9-9 3-4v-3h2l8-18 6-18 5-22 3-22 2-32v-176l-4-8-9-11-15-15-14-10-25-14-26-10-33-9-28-5-17-2-18-1z" fill="#07297F"/>
<path transform="translate(1267,228)" d="m0 0h60l43 1 12 2 13 5 11 7 13 12 11 14 10 15 10 18 8 19 8 24 5 21 5 32 2 22 1 29v14l-1 28-4 34-5 27-7 25-8 21-9 20-9 16-10 14-13 15-12 10-14 7-12 3-7 1-18 1-68 1h-231l-17-1-2-1 1 4 2-2v2h2l-1 2-2-1v2h223l1 1v104l-2 11-7 13-12 16-9 10-14 12-13 8-17 9-27 11-54 15-24 5h-113v-3l-8-1-8-3-27-6-31-9-15-6-25-13-14-10-10-8-12-12-9-14-7-15-2-15-1-51v-94l3-44 5-34 7-31 4-12 5-8 5-10 8-10 10-10 16-12 11-5 15-4 19-3 23-2 17-1 143-2 38-2 36-6 22-6 21-10 11-8 11-11 7-10 8-16 9-27 5-21 4-36 5-69zm23 15-7 1 1 2h2l-1 37-3 40-6 38-5 20-8 21-11 21-10 13-12 12-15 10-22 10-21 7-15 3-20 2h-57l52-2 19-2 23-5 24-8 14-7 17-12 12-11 12-17 1-4-4 1-8 12-11 12-12 9-15 9-17 7-9 2-7 2-18 4-27 4-21 2-40 2-113 1-28 1-28 4-17 4-14 6-11 8-8 7-9 12-5 11-8 26-5 25-2 16-1 21v15l1 14 6 25 9 38 8 23 11 24 11 19 9 12 9 11 11 12 10 10 17 13 20 12 25 12 21 7 24 5 21 3 25 2h50l32-3 21-5 16-6 23-12 11-8 10-9 11-11 9-14 3-10 1-16v-61l-2-1-3 1h-168l-31-1-7-3-3-3-4-8-2-9v-22l2-5 2-1h337l11-2 19-10 10-8 8-8 13-18 8-14 11-26 9-27 6-31 4-28 2-24v-36l-3-30-5-32-5-25-7-20-11-26-8-15-11-16-9-10-7-7-14-8-9-4-12-2z" fill="#061F64"/>
<path transform="translate(610,339)" d="m0 0h3v73l3 37 6 34 8 27 9 22 11 23 11 18 9 12 9 11 16 16 12 9 14 8 24 10 25 10 5 3 1 3v15h-92l-13-6-10-7-11-11-11-14-9-14-8-15-13-32-7-24-5-30-4-40v-41l2-27 5-34 6-26z" fill="#214788"/>
<path transform="translate(816,635)" d="m0 0h1l1 14 6 25 9 38 8 23 11 24 11 19 9 12 9 11 11 12 9 9 17 13 20 12 25 12 21 7 24 5 21 3 25 2h50l24-2h8l-4 3-13 4-26 4-15 2-32 2h-49l-30-2-27-5-31-9-14-5-8-3v-2l-9-2-6-3v-2l-7-2v-2l-5-2-3-1v-2h-3v-2h-3v-2l-5-2-4-3v-2l-4-2-10-11-9-14-3-7-2-12v-113z" fill="#63757F"/>
<path transform="translate(1146,737)" d="m0 0 13 1 11 4 11 7 10 10 7 14 1 5v20l-4 11-7 11-8 8-12 6-9 2h-15l-14-3-11-6-9-9-6-10-3-12v-18l4-13 7-10 9-8 12-7 6-2z" fill="#082165"/>
<path transform="translate(903,76)" d="m0 0 13 1 13 5 11 8 8 10 5 12 1 5v17l-2 9-7 12-9 10-12 6-12 3h-12l-12-3-11-7-9-9-6-10-4-13v-17l3-9 5-9 10-11 10-6 9-3z" fill="#08297E"/>
<path transform="translate(801,240)" d="m0 0h30l69 1 40 1h94l-4 7-6 5-38 2-39 1-180-2-44-1h-43l-11 1 4-4 9-4 12-3 14-2 59-1z" fill="#224889"/>
<path transform="translate(1146,754)" d="m0 0 14 1 10 5 7 7 5 9 1 5v13l-3 10-7 8-10 6-10 3h-7l-10-3-8-5-6-7-4-10v-17l4-9 9-10 10-5z" fill="#FEE092"/>
<path transform="translate(900,92)" d="m0 0h10l13 4 8 6 6 9 2 7v13l-4 10-7 9-5 4-8 3-10 1-13-2-8-6-7-8-4-9v-17l5-10 7-7 11-6z" fill="#FEE092"/>
<path transform="translate(1008,18)" d="m0 0h34l24 2 36 5 22 4 16 2 18 7 16 6 18 8 10 7 14 10 11 9 7 7 11 14 6 4 4 1 2 6v25l-1 50h-3l-2 18-2 27-3 17-3 25h-1l-1-146-1-20-4-8-9-11-14-14-14-10-25-14-26-10-33-9-28-5-17-2-18-1h-42l-29 2-28 4-25 6-25 7-13 5-9 4-13 7-12 8-11 9-10 6-6 5-5 1 2-4 11-9 12-10 18-11 23-11 24-8 29-7 31-5z" fill="#041D63"/>
<path transform="translate(1024,708)" d="m0 0h218l-1 14-5 1h-168l-31-1-7-3-4-4z" fill="#64757F"/>
<path transform="translate(804,574)" d="m0 0h1l2 8v9l-2 17v25l1 10 1 7 1 143 2 12 4 8 4 9 8 10 11 10 5 3 3 4 6 2 8 6 11 6 9 4 23 8 10 3 2 2 12 3v3l7 2-4 1-26-7-20-6-8-2v2l-6-2-17-9-14-10-10-8-12-12-9-14-7-15-2-15-1-51v-94l3-44z" fill="#072A7F"/>
<path transform="translate(848,70)" d="m0 0 2 1-3 6-9 14-1 3-1 18-1 92h18v1h-39v-20l1-74 3-9 8-11 16-16z" fill="#224889"/>
<path transform="translate(1452,309)" d="m0 0 3 4 8 22 6 22 3 16 5 34 1 13 1 29v14l-1 28-4 34-5 27-2 8h-1l1-8-4 3-6 15-5 16-12 31-8 15-11 14-2 1 2-7 7-7 6-11 3-10 12-27 8-26 6-26 5-30 2-19 3-21v-26l-3-24-1-5v-20l-2-7-5-2-3-17-3-16v-4h2l-4-15-1-2z" fill="#092B80"/>
<path transform="translate(1219,392)" d="m0 0 2 4-7 11-7 7-16 9-25 8-36 7-33 4-12 2-10 1-66 2h-30l-44 1h-15l-34 3h-16l4-3 14-3 36-4 21-1 87-1 49-1 26-1 27-3 23-4 22-6 14-7 10-8 8-8 7-8z" fill="#041D63"/>
<path transform="translate(1281,243)" d="m0 0h9v1l-6 1 2 1v37l-3 40-6 38-5 20-8 21-11 21-10 13-13 13-15 10-22 10-21 7-15 3-20 2h-58l1-2 52-2 19-2 23-5 24-8 14-7 17-12 11-10 12-17v-3-3l8-18 7-22 6-26 5-38 2-33z" fill="#627581"/>
<path transform="translate(705,228)" d="m0 0h197v1l-55 1-9 1-42 2-18 2h-76l-20 3-14 4-12 5-9 5-3-1 6-7 14-8 15-5 11-2z" fill="#062167"/>
<path transform="translate(940,896)" d="m0 0h25l15 1 39 1 23 2 23 1 2-1 12-2 8-1h10l6 3-4 2-20 4h-113v-3l-8-1-8-3-10-2z" fill="#07297F"/>
<path transform="translate(1008,18)" d="m0 0h34l24 2 36 5 9 2v2l-32-5-27-2h-42l-29 2-28 4-25 6-25 7-13 5-9 4-13 7-12 8-11 9-10 6-6 5-5 1 2-4 11-9 12-10 18-11 23-11 24-8 29-7 31-5z" fill="#041E65"/>
<path transform="translate(1245,691)" d="m0 0h12l1 1v104l-1 8h-1l-1-6h-2v-15l-1-13-1-41-1-13-3-6-4-5-5-2-4-6 1-3 9-2z" fill="#092B80"/>
<path transform="translate(903,76)" d="m0 0 13 1v2l14 8 7 8 9 13 1 2v7l-2-4-6-8-5-1-9-6-10-4-14-2-4-4-10 3-10 7-6 9-2 5h-2l2-6 6-13-2-4 9-7 13-5z" fill="#07297F"/>
<path transform="translate(1268,386)" d="m0 0 1 3-6 15-10 19-10 13-13 13-15 10-22 10-21 7-15 3-20 2h-58l1-2 52-2 19-2 23-5 24-8 14-7 17-12 11-10 12-17 8-14 5-15z" fill="#1D346B"/>
<path transform="translate(1251,412)" d="m0 0h3l-2 5-9 13-8 9-14 11-13 8-10 5-24 8-23 5-19 2-19 1-47 1h-20v-1l59-3 37-4 26-5 9-2 7-2 16-6 16-9 11-8 10-9 8-10z" fill="#F9DD91"/>
<path transform="translate(1455,384)" d="m0 0 2 4 4 27 2 23v36l-3 32-6 37-5 21-7 20-9 21-8 16-12 17-11 12-10 8-19 10-10 1v-1l10-3 12-6 13-10 13-13 9-12 13-24 9-23 8-28 4-21 4-37 1-12v-50l-3-33z" fill="#FDDD8A"/>
<path transform="translate(870,464)" d="m0 0 3 1-5 3-12 6-5 4-7 4-6 5-7 8-7 10-9 16-5 13-3 9-4 2-2-1 1-9 5-15 8-14 12-15 7-8 7-6 11-6 12-5z" fill="#07236A"/>
<path transform="translate(654,257)" d="m0 0h2v4l-8 7-9 11-9 14-10 19-5 16-2 11h-3l-3 10-2 3h-2v-8l3-10 7-14 2-9 5-13 7-13 10-13 8-8z" fill="#041E65"/>
<path transform="translate(831,471)" d="m0 0v3l-3 8-2 3h-2l-2 4-8 11-9 17-3 5-4 11-4 8-4 16-2 10-3 10h-1l1-15 3-15 8-26 3-7 8-16h2v-3h2l2-5 13-15z" fill="#041E65"/>
<path transform="translate(872,90)" d="m0 0h2v2l2 1-10 21-4 1 2 21 4 11 4 8v2l4 2 8 6 13 5 10 1 12-2 7-3h4v2l-9 4-9 2h-12l-12-3-11-7-9-9-6-10-4-13v-17l3-9 5-9z" fill="#041D63"/>
<path transform="translate(897,87)" d="m0 0 4 3-1 3-10 4-8 6-6 8-2 5v17l6 12 7 7 8 4-4 1-16-10-4-5-3-9-1-5v-12l4-11 6-8 10-7z" fill="#0E2767"/>
<path transform="translate(1441,618)" d="m0 0h1v6l-10 16-11 14-11 12-11 8-12 6-6 2h-4v-5l11-9 8-4h9l8-6 11-14 9-12z" fill="#082B7F"/>
<path transform="translate(911,78)" d="m0 0h8l10 4 11 8 8 10 5 12 1 5v17l-2 9-3 5h-2l-1-5 2-4 1-6v-10l-2-6-2-9-10-14-2-4-3-1v-2l-6-2-8-5-5-1z" fill="#041E65"/>
<path transform="translate(1239,775)" d="m0 0h1v24l-3 10-7 11-9 10-11 11-14 10-25 13-21 7-9 2h-5l4-2 14-4 21-9 9-4 10-7 17-13 10-8 9-11 5-10 3-15z" fill="#FDDE8E"/>
<path transform="translate(1381,249)" d="m0 0 6 2 11 7 13 13 14 21 9 17 11 27 5 15 5 25v7h-1l-5-25-11-30-9-21-5-8-14-23-7-10-9-8-13-8z" fill="#FDDF90"/>
<path transform="translate(1247,682)" d="m0 0h128v1l-7 1-18 1-68 1h-23v-1l-14-1z" fill="#113583"/>
<path transform="translate(1147,735)" d="m0 0 16 2 13 6 9 7 6 7-1 2-9-9-11-7-11-4-13-1-10 2-12 6-10 8-7 9-4 10-1 5v18l3 12 7 11 6 7-4-2-5-5-6-9-4-13v-19l4-12 6-10 8-8 11-7 12-5z" fill="#FEE092"/>
<path transform="translate(1251,412)" d="m0 0h3l-2 5-9 13-8 9-14 11-13 8-6 3-6 1-15 5h-4l1-3 12-3 18-8 18-12 12-11 9-12z" fill="#EDD490"/>
<path transform="translate(1224,839)" d="m0 0 2 1-8 8-17 12-16 9-17 7-47 15-8 2-4-1 23-7 15-5-2-2 9-2 2 1 8-3v-1l12-3 22-12 7-5 5-3h2l2-4 8-6z" fill="#06287F"/>
<path transform="translate(931,101)" d="m0 0 5 3 4 1 4 5v2l2 1 1 14-2 6-6 1-1-16-3-9-4-6z" fill="#0A2366"/>
<path transform="translate(991,869)" d="m0 0 11 1 27 4 25 2h67v1l-14 2h-42l-31-2-29-4-14-3z" fill="#1A3169"/>
<path transform="translate(629,265)" d="m0 0h2l-1 7-10 13-7 12-8 16-4 9-1-4 6-16 10-19 10-14z" fill="#072269"/>
<path transform="translate(1433,600)" d="m0 0 1 3-8 16-8 12-10 13-9 9-14 9-12 6-10 1v-1l10-3 12-6 13-10 13-13 9-12z" fill="#FDDF90"/>
<path transform="translate(1197,804)" d="m0 0 1 2-7 14-8 9-10 6-11 3h-20l-12-4 3-1 11 2h15l12-3 10-6 9-10z" fill="#FDDD8B"/>
<path transform="translate(862,496)" d="m0 0 2 1-10 9-9 11-6 7-6 13-9 30h-1l1-9 9-29 6-11 11-13z" fill="#FDDD8C"/>
<path transform="translate(884,32)" d="m0 0h4v2l-21 9-15 8-10 9-12 8-8 6 2-4 11-10 17-12 18-10z" fill="#09266E"/>
<path transform="translate(1126,474)" d="m0 0h5v2l4 1-3 1-19 1-47 1h-20v-1l59-3z" fill="#FEE092"/>
<path transform="translate(1117,748)" d="m0 0m-1 1v3l-7 8-5 10-2 8v18l3 12 7 11 6 7-4-2-5-5-6-9-4-13v-19l4-12 6-10z" fill="#FDDE8D"/>
<path transform="translate(954,899)" d="m0 0 14 1 22 2 4 2-1 2h-27v-3l-8-1z" fill="#224889"/>
<path transform="translate(1251,412)" d="m0 0h3l-2 5-9 13-8 9-7 6-4-2 15-14 10-14z" fill="#FADD91"/>
<path transform="translate(1251,392)" d="m0 0 1 3-7 13-10 14-10 11-6 5-2-1 3-4h2l2-4 8-7 15-25z" fill="#06287F"/>
<path transform="translate(1128,874)" d="m0 0h8l-4 3-13 4-14 2-6-1 1-3 18-3v-1z" fill="#5E7381"/>
<path transform="translate(1455,528)" d="m0 0 1 4-5 25-9 27-7 17-1-4 8-20 8-28 4-20z" fill="#FDD981"/>
<path transform="translate(944,14)" d="m0 0h6l-2 2-23 6-26 8-2-1 3-3 20-6z" fill="#07236A"/>
<path transform="translate(589,449)" d="m0 0 2 1 1 12v24l-2 3-1-2-1-19z" fill="#041D63"/>
<path transform="translate(892,91)" d="m0 0 2 1-2 4-9 6-6 7-2 2-1-6 2-5 6-5z" fill="#0E3080"/>
<path transform="translate(1266,381)" d="m0 0 1 4-6 17-6 10-3 1v-3l8-18 3-7 3-1z" fill="#7F8A85"/>
<path transform="translate(1232,395)" d="m0 0 1 3-6 10-8 10-4-1 1-4 9-11 6-5z" fill="#07226A"/>
<path transform="translate(1268,386)" d="m0 0 1 3-6 15-5 10-4 3-1-3 7-12 5-15z" fill="#243D70"/>
<path transform="translate(897,87)" d="m0 0 4 3-1 3-6 2-4-1 2-2-12 5-5 6-2 3v-4l6-7 10-6z" fill="#082165"/>
<path transform="translate(1191,46)" d="m0 0h10l9 6v2h-2v2l-6-2-10-4-2-2z" fill="#052067"/>
<path transform="translate(1152,876)" d="m0 0 2 1v2h-2v2l-31 10-8 2-4-1 23-7 15-5-2-2z" fill="#05277E"/>
<path transform="translate(846,52)" d="m0 0 3 1-8 8-11 7-8 6 2-4 11-10z" fill="#072269"/>
<path transform="translate(1104,876)" d="m0 0h17v1l-14 2h-25l1-2z" fill="#0D2565"/>
<path transform="translate(1253,354)" d="m0 0h1l-1 9-2 14-3 6-3 1 2-9z" fill="#0C2F81"/>
<path transform="translate(1441,618)" d="m0 0h1v6l-9 14-3-1 8-14z" fill="#082776"/>
<path transform="translate(1128,874)" d="m0 0h8l-4 3-9 3h-3l-2-5z" fill="#355C8B"/>
<path transform="translate(1176,870)" d="m0 0m-3 1h3v2l-20 7-4-1 12-5v-1z" fill="#082A7F"/>
<path transform="translate(1135,473)" d="m0 0h17l-8 4h-9l-4-1v-2z" fill="#C0B58A"/>
<path transform="translate(1223,443)" d="m0 0 3 1-2 4-6 4-5-1 4-4z" fill="#DDC98E"/>
<path transform="translate(1193,460)" d="m0 0h5l-2 2-15 5h-4l1-3 12-3z" fill="#9D9E87"/>
<path transform="translate(856,865)" d="m0 0 5 2 14 7v2l-6-2-13-7z" fill="#0B2870"/>
<path transform="translate(1438,621)" d="m0 0 1 2-7 12-4 5-2-1 9-14z" fill="#041D63"/>
<path transform="translate(1103,808)" d="m0 0h2l7 11 6 7-4-2-5-5-6-9z" fill="#FDDD8C"/>
<path transform="translate(1258,401)" d="m0 0 2 2-5 9-3 1v-3l4-8z" fill="#AAA688"/>
<path transform="translate(1271,371)" d="m0 0 2 2-1 8-4 2 1-8z" fill="#4A5E79"/>
<path transform="translate(1268,386)" d="m0 0 1 3-3 8h-2l-1-4 2-6z" fill="#354B73"/>
<path transform="translate(1433,600)" d="m0 0 1 3-7 14h-2l2-6z" fill="#FDDF8F"/>
<path transform="translate(1266,381)" d="m0 0 1 4-4 10-2-3 1-6 4-2z" fill="#BCB28A"/>
<path transform="translate(835,60)" d="m0 0 2 1-4 5-10 8v-3z" fill="#08256E"/>
<path transform="translate(1168,427)" d="m0 0 3 1-1 2-8 2h-5l1-2z" fill="#062067"/>
<path transform="translate(1031,684)" d="m0 0 2 4 2-2v2h2l-1 2-2-1v2h7v1h-10z" fill="#0E3181"/>
<path transform="translate(646,247)" d="m0 0 2 1-5 6-7 6-2-1z" fill="#072571"/>
<path transform="translate(870,464)" d="m0 0 3 1-5 3-7 2 1-3z" fill="#09276F"/>
<path transform="translate(1441,618)" d="m0 0h1v6l-4 5-1-4z" fill="#092979"/>
</svg>
