<?xml version="1.0" encoding="UTF-8"?>
<svg version="1.1" viewBox="0 0 1736 1200" width="434" height="300" xmlns="http://www.w3.org/2000/svg">
<path transform="translate(0)" d="m0 0h1736v1200h-1736z" fill="#0A1020"/>
<path transform="translate(790,481)" d="m0 0h21l2 1 1 86 1 9v52l2-1v-3l5-15 1-8v-3l1-3v-12l-1-8v-3l-1-15-1-3 2-6h2v3l2 1 3 8 1 12h2v5 2l3 11 3 9 3 8 5 12 3 8v3h2l3 4 5 1-3-12-5-18-6-20-2-7-11-34-2-13h21l3 1 2 10 3 9 5 21 3 9 4 14 1 9 1 2 8-24 4-15 7-22 2-5 2-9h21l5 10 6 23 5 17 3 9 4 15h2l2-11 5-18 4-16 2-5 4-16 3-7 16-1h7l-2 9-18 60-7 25-2 8 1 4h7l2-4 3-5 1-4 3-1 1-4 1-2h2l1-2 7 1 1 2-2 1v2l5 3 5 16v2l7 2v2h3v2h7l5 1-1-7h-12l-1-1v-111l-1-5-4 1-3-3h-3l-2-5 1-6 6 1 5 4 4-1 5-2-7-6-3-7 1-9 6-7 5-2 7 1 6 4 5 7v7l-6 8-3 1v3l-3 2-1 5-6 5-1 2 16 2 1 1v110l-2 4 7 1 3-3 2-7 3-1 3 1 3 5v2l3-2 1-4 1-104 4-2h19l1 1v12h2v-2h2l1-3 6-5 10-5 8-2h10l12 4 11 6 6 7 4 7 3 10 1 8v72l-1 1h-22l-1-72-4-11-3-4-9-4h-15l-8 3-7 8-4 10-1 5-1 65-16 2-4-1v2h-2v4l20 1 6-2 7 3 7 1 1 3h2l1 4 5-3 2 1-1 2 6-1 5-2h4v2l5-1h7l3 1 2-2 8-1 1 7-1 4v5l-1 4h8l7 1v-2l2 1v5l3 3 4 1 5 3v5l5 1 4 2 2 2-1 3v6l6-1 3 3 1 4 2 1v2h2v2l4 2 10 4h2l-1 4h-3l2 2 7 1 4 4 4 5v3l6-2 4 3v4l5 1 3 2v2l3 1 4 8 5 3 7-1 3 3 2 6 10 3 2 2 2 5 6 3 1 3 5 4 2 5 2 1v2l4-1 8 6v2l3-1 2 8 5 5 9 7 1 6 6 3 5 5v2h2l1-2v2h2v2h2v2l4 1 2 2-2 3h2l1 6 5 3v2h-2l-1-1v2h5l6 8 4 5v2l5 1 3 4 3 5 6 3 4 7 1 3 5 3v2l4 2 8 7 2 3 8 3v2l2 1 1 7 5 4 2 2 4 5 7 3v3h2v4h2l3 6 6 5 5-1 4 10 1 3 4 2 2 4h-2l1 2 4 2 3 5 2 1 3 5 4 1 5 8 2 6 4 1 4 11v2l7 1 1 8 4 9-1 3 2 2v3l4-1v2l3 2 3 10 5 7 3 7 5 4v6h-2l2 3 4 1 6 3-1 9 1 4 4 5-1 5 6 5 3 1v7l-2 6h-2l2 9 2 6h2l2 4 2 2v10l-3 5 1 5 6 4 4 5-5 11h-646l-2-4-1-5-2-6v-3l-6-3-3-5-5-5-4-6-3-3-7-9-4-3v-2h-3l-2-3v-4l-7 1-3-2 1-9-5-3-3-3-3-5-11-8v-2l-5-2-3-8-4-3v-2h-2v-2l-6-1-3-4-3-5-6-3-1-2v-6l-6-2-5-2-3-5-2-5-5-4-6-2-4-1 1-5v-4h-2v-2l-7-2-4-2v-3l-2-1h-2-2l-1-3-7-4-4-5-5-8-6-2-1-3-7-1-3-2v-3l-3-1-1-6h-6v-2l-5-2-4-3-2-8-2-1-2-4-3-1v-2l-7-2h-2v2h2v2h-2l1 5h2v2h2l-1 3-5-2-7-2-9-2v-2l-3 1 1 6 6 2 1 1v7l-6-2v-2l-9-1-1-10-6-8v-3l-11-2v-2l-10-2h-6l-2-1v9l4 1v2h2v2l2 1-3 2v2l-6-2v-3h-2l-1-5h-2v-2l-8 1 7 2 1 8 3 2v5l-3 2-4-2-1-4h-5l-9-4-1-5-2-1 2-2-4 1-1-3 1-5 6 3 1-1h6v-2l-4-2h-6l-2-2 2-4v-2h-12l2-10h6v2l2-1-9-6h-3v3l-5-1-1-3 2-5 2-4v-3l5-2 5 5 3-1 4 2-4-10-4-4 1-3 4 1 3-2 1-3 7-3 8-1 7 4v2h6l4 1 4-1 3 4 3 1h2l3-1-1-3 4 1-2-6 8 4 1-2 6 2 1-3 6 1 3-2h7v2l4 1-1-9-2-3-1-6v-6l-3-3h-5l-2-6-2-4-1-12-5-1-16-4-6 2-5-2-8 2-7-1-3-2v-2l-6-1-1 2-2-1-1 2-4-4v-2l-6-2-6-5-3-3v-2h-2v-2l-8 1-2-5-1-1-5-2-3-6h-3l-2-6-2-1v-2h-2l-1-3-5-3v-2h-2v-2l-3 1-6-2v-2l-13 1-2-3 3-9h-2l-2-4h3l3-5-4-1-2 1-5-5 5-5-1-3-2-1v-2l-3-1-1-5-2-1 3-4 1-3-2 1-1 2-5-4v-2h-4v-2h-3l-2-6 1-4v-3h4l3 3 2-3v-5l3-1h3l3-1v-9l-6 1-7-6v-3h2v-2h3v-2l4 1 6 3 8 1 3 4v2h6l2 1-2-3-6-1-2-5 1-4 5-1 8 2 4-1 2 1v3h4l2-4 5-1 4 3 3 5 3 1 2 4 3 1 5 6 4 4 5-1 1-2h-2l-1-3h2v2h3v5l5-2 5 1 1 1h5l-4-1v-2l4-3 2-6 2 1 2 5 5 2 3 3v2l6-2v-7l1-3h2l2-5 2-4h3l1-7-3-7-4-1-3 3-4-2v-2h3l1-5-1-1-4-2-1-5-4-1-1-2-7-2-2-4-4-1-1-4-1-9 1-2 7 3 4 2v-4l9 2 13 3h9l4-2 14-5 4-3 1 1 10-1 2 4 5-1 1-3-8-1-1-5 1-10-9 7-1 2-13 6-7 2h-16l-12-3-10-6-5-5-5-4-8-14-3-6-2-12v-15l2-14 6-12 9-11 13-9 12-5 4-1h13l9 3 14 7 9 9-1-15h22l1 2v107l-1 5h6l2-5 3-7v-15l2-10 1-3 3 1v8l2 4-1 6 2 7 2 6 4 2v-2h2v-107l15-1 1-3-4-2-2-2 2-1 1-4-9-3v-4l-3-1v-2h-2l-2-10 2-6 5-6 4-2h6l10 6 2 6v7l-6 13 9 4 1 3-2 3-7 3-2 1 4 1 1 2 2-1 1 6h-2l1 10v83h2v-18l2-1v-7l1-5 1-23 1-21v-10l-2-4v-5l-3-1-1-5h3l3 1v2l4-1 1-5v-5h2l-1-4h2l1 17-1 3-1 15 2 33 1 17v11l1 2 1 11 2 3 1-2 2-147z" fill="#171226"/>
<path transform="translate(1325)" d="m0 0h411v359h-2l-2-9v-15l1-2-2 2v4l-4 1v-2h-2v-5l-9 1-3-1-2-6-3 1-4 5h-2l-1 3-3 1-2 6-3 3h-6l-2 8-10 2-1 5 1 3-1 3-6 2-2 2h-8l-1-2-4-2-7 1-2-3 1-5h-3l-2 2-5 1v3 6l-1 2h-2v2h2l1 4-3 1-1 2h-2l1 3-2 6-9-2-2 1-5-3v-2l-5 1-4-6-5 1v-2l-5-1v2l-10-2 1 5 17 3h2l1 3h-3v3l2 1-4 1 3 4 3 6-1 4 4 2 2 5 1 5 4 1-2 4-6 4 4 5 1 10-1 4 2 3-1 7h2v2l7-1 2 2v5l-7 1v4 5l-5 4-7 1-2 5-3 1-6-2v-3l6-3 3-1 1-8-3 3-6-1-1-5 3-3 4-1 3-8-6-1-10-5-2-9h-2l1-6 5-1 2 2-1-6-6-1-1-5-3 1v-2l-4-1-2-5v-7l-1-5-3-1-1-6-4 1v-2l-4-1-2-3-5-1-5-3-6-1v-2h-7l-2-2v-5h-5l-5-1-2 1-2-7-1-3-2-1-3-7-3-2 1 4h-3l-1-8v-4-1l-5-1v-2h2v-8l-5-4 1 6-2 2-4-1v-3l2-1 1-5h-6l-3-3 2-5-3-1v-2l-4-1-3-3-6-2-2-4 1-4 7 1-2-3-5-1-2 4-4-3v-3l-5 2-4-6 1-7-4-1h2l-5-9v2l-3 5h-2v5h-2l-5-10 1-3-3-1-4-7v-2h-2l-3-8-4 1-4-5 2-3-4 1-1 2-2-2-5-2-3-3h-3l-2-6-4-2 1-4 4-2-2-3v-3h-3l-2 4h-2l1 5h-4l-3-6-2-1v-5l-3-1 1-4v-3l10 2-1-6-8-2-4-4 1-5h4l2 1 3-7h2l-1-2-5-1-2 3h-6l-3 5-10 1-8-3-1 2-3-3-1-2-9-1-3-3-1-6 3-6 3-1h10l-1-8-8 1-9-4-1-4-11-1h-8l-9-7v-5h4l3 3 1 2 5 1v-9l2-4-5-2-2-5h2l1-3 3-3 4-1h3l-1 2h3v-6l-4-5v-2h-3v2l-5 2-4-2h-11l2 5 4 2-3 3-5-2v-2l-9 2v-4l4-6 2-1v-5l-3-3h2l-2-4-1-1v-2l-6-1-2-4-2-1v2h-2v-2l-7 1-3 1-3-2v-2h-3v-2h-3l-1 2-8-1-1-2 3-3 1-6-6-3 1-5 2-2h2 3v-6l-5-1v-4l1-2 3-3 4-2 4-1 4 4 1 9 8-1 1 9h4l3-5-1-4-4-3-4 2-1-5-2-1 2-3h3v2l5-1 3-6h6l-6-2h-6l-6-1v5l-3 2-3-1-1-10-2-1-6 1-1-4 5-2 7-2 1-3 3-2h6l2 1v-2l-8-4 3-8h5l2 6 1 6 2-1 3-5 4-3 2-4 4-1v2h2l1 5 6-1 4-1v-4l-4 1-6-2-2-4-2-1 3-3 10 2 1 2-1 4h9l-3-8h2v-2h2v-3l-6 1-2-1v-3l4-1z" fill="#161125"/>
<path transform="translate(980,798)" d="m0 0h5l3 3v5l-2 2 1 4 2-1v-3l3-2h5v2l4-1 2 1v2l5 1 1 3h8l5-2 2 3h8l4 4 7-1 4 4 7 2 4 1 5-1v2h2v2l10 2 4-1 2 1 4 7 5 1 3-3 5 1 1 3h2v3l2 1 1 3 3 1 1-3h3v2l4 2 2 2v4l7-1 3 3v4h3l1 4 6 1 3 1 4 6 6-1 3 3 9 5 9 3 3 5 3 2 6 1 3 4v2l6 1 5 8h2l4 5 6 1v2h2v2h6l5 4-3 1-1 2 4 2 5 2 1-2 4 1 2 5 6 1 3 5v2l12 2 3 9 3 1 4-1 5 2v6l-1 2h2l2 5 3 3 1-2v2l3 1 3 5 10 5v3h2l2 7 6 2 3 6 7 4 1 6 4 2 3 3 4 2 5 10 6 2 5 5 1 3h2l3 5 3 4 3 9 2 4 3 2 1 5 4 2 2 7 3 1v2l2 1v5l3 1 5 10 4 9 6 10 1 9 7 6 2 5-1 8h2v2l4 2-1 6 4 7 1 6v7l-2 3 1 5 2 5 4 2 1 9 4 5-1 3h-321l1-3 8-1-4-4-2-1v2l-8-1-3 1v-2l-3-1 1-5 3-1v-4l-3-3v-2l-10-5-4-6-7-2-1-4 1-6-2-1-4-1-5 2-2-2-1-5v-3l-8-5-1-5h-2l-2-4-7-4v-4h-2l-1-2-5 1-4-6-2-6-3-1-5-8-1-3-5-2-8-6-1-5-7-5-4-5-3-5-7-6-5-5-3 1v-2h-2l-2-8-3-1 2-2-3-4-5 2-2-7h-2-3l-3-1-2-4h2l-2-5-3-1v-2l-4-1-3-5 1-2-2-1-1-5-6-3-1-7-4-1v-2h-2l-3-7-6-1-1-4h2l-5-10-5-8-2-7 2-2-2-6-3-1 2-6-4-2 2-1v-4l-2-2-1-6 2-3-1-2-6-1-4-4 1-7 1-4-2-4v-7l1-5 5 1 1 4h2l-4-7v-2h-2l1-4-3-1 3-1 4 1 1-7-5-1-2-6 2-4 3-2-1-5 5-5-2-4v-5l4 1 2 6 3-1 3-5-2-1-4-7 4-1v2l6 1 3-1v-4l2-1-1-2 2-3h3l1 2 4-1 2-5 6 1 4-4 1-2h3v-2l13-3 2 4 2 1v-4l-2-2 4-1h7l1-8 6 2 1 3 8-1 3 2 1-4-2-4z" fill="#2E162F"/>
<path transform="translate(747,484)" d="m0 0h6l10 6 2 6v7l-6 13 9 4 1 3-2 3-7 3-2 1 4 1v112h-2l-2 6h4l-2 5 2 1-3 5h-3l-2-3-9 1-5-2-4 1-5 2v2l6 1h6l2 1 11 1v-2l2 1-5 5 5 1 3 4 1 3 3-1-2 9-3 4h-2v5l-5 1 4 2-1 5 3 2-1 5-3-1v-4l-6-2-2 4 2 6-5 5-1 2 6 2-2 4-9 1-2 3-1 5h-2l-1 3h-2l1 4 5-2 1 4-5 3h-2v10l-1 3h-2l1 7-1 2-4 2v4h2l-1 9 2 1-1 4h-3v10l-3 3 1 5-4 2-1 9-4 2v2h-2l3 9h-2l-3 9-2 2-1-2 1-4-7-3 1 4h2l-1 5h-2l-3 10-3 1-2-1 3-6h-6l-1 8-2 4 1 5-6-2-2 1-2-4-10-2-9-3-5 1-4 1-5-2-8 2-7-1-3-2v-2l-6-1-1 2-2-1-1 2-4-4v-2l-6-2-6-5-3-3v-2h-2v-2l-8 1-2-5-1-1-5-2-3-6h-3l-2-6-2-1v-2h-2l-1-3-5-3v-2h-2v-2l-3 1-6-2v-2l-13 1-2-3 3-9h-2l-2-4h3l3-5-4-1-2 1-5-5 5-5-1-3-2-1v-2l-3-1-1-5-2-1 3-4 1-3-2 1-1 2-5-4v-2h-4v-2h-3l-2-6 1-4v-3h4l3 3 2-3v-5l3-1h3l3-1v-9l-6 1-7-6v-3h2v-2h3v-2l4 1 6 3 8 1 3 4v2h6l2 1-2-3-6-1-2-5 1-4 5-1 8 2 4-1 2 1v3h4l2-4 5-1 4 3 3 5 3 1 2 4 3 1 5 6 4 4 5-1 1-2h-2l-1-3h2v2h3v5l5-2 5 1 1 1h5l-4-1v-2l4-3 2-6 2 1 2 5 5 2 3 3v2l6-2v-7l1-3h2l2-5 2-4h3l1-7-3-7-4-1-3 3-4-2v-2h3l1-5-1-1-4-2-1-5-4-1-1-2-7-2-2-4-4-1-1-4-1-9 1-2 7 3 4 2v-4l9 2 13 3h9l4-2 14-5 4-3 1 1 10-1 2 4 5-1 1-3-8-1-1-5 1-10-9 7-1 2-13 6-7 2h-16l-12-3-10-6-5-5-5-4-8-14-3-6-2-12v-15l2-14 6-12 9-11 13-9 12-5 4-1h13l9 3 14 7 9 9-1-15h22l1 2v107l-1 5h6l2-5 3-7v-15l2-10 1-3 3 1v8l2 4-1 6 2 7 2 6 4 2v-2h2v-107l15-1 1-3-4-2-2-2 2-1 1-4-9-3v-4l-3-1v-2h-2l-2-10 2-6 5-6z" fill="#101C2D"/>
<path transform="translate(1523)" d="m0 0h213v181l-4 3h-7l-5-2v-4l-4 1-5-1-1-3h4v-3l-5-1-3-3h-3l-5-7 4-2 1-5-7 1-3 1-3-10-2-5-2-2-2-7-6-4-6-7-3-5-10-10h-3v-2h-5v-4l-4-1-8-4 2-3-4-2v-2h-9l-2-2-1-7h-2l-1 2-3-1-2-6-4-2-1-3v-4l-5-2-3-5-7-4-1-7-7-1h-7l-6-4-1-3 1-2h-2v-2l-5-2v-3h-3v-2l-9 1-4-4v-2h-7l-2-2h-6l-5-4-2-2h-5l-1-7 1-2-1-5z" fill="#0A1020"/>
<path transform="translate(1262,488)" d="m0 0h21l1 1v153l-1 1h-21l-1-1v-9l1-5-8 7h-2v2l-11 6-9 2h-15l-12-3-8-4-10-8-3-4v-2l-3-1-5-10-4-13-1-5v-16l2-12 8-16 10-11 11-7 12-4 5-1h10l13 4 9 4 5 5 5 6z" fill="#FBFCFC"/>
<path transform="translate(645,528)" d="m0 0h13l9 3 14 7 9 9-1-15h22l1 2v107l-1 1h-21l-1-4 1-10-9 7-1 2-13 6-7 2h-16l-12-3-10-6-5-5-5-4-8-14-3-6-2-12v-15l2-14 6-12 9-11 13-9 12-5z" fill="#FCFDFC"/>
<path transform="translate(204,569)" d="m0 0 13 1 17 3 13 5 11 7 12 11 19 19 9 6 11 4 10 1 14-3 8-4 9-7 6-7 3-3-1 6-6 16-7 12-9 10-7 6-14 7-14 4-7 1h-21l-18-4-12-5-11-7-13-12-18-18-11-7-12-3h-12l-10 3-10 6-8 7-4 5h-2l3-9 5-13 7-11 6-7 12-9 10-5 15-4z" fill="#4DA2AD"/>
<path transform="translate(269,476)" d="m0 0h28l15 3 9 4 11 6 14 12 10 10 4 5 10 8 7 4 10 3h15l11-4 9-6 6-5 1-2h2l2-5h2l-3 11-5 12-9 13-11 11-10 6-13 5-16 2h-19l-14-2-12-4-14-9-10-9-4-3v-2h-2l-7-8-7-7-14-9-11-3h-10l-13 4-9 6-6 5h-2l-2 5-3 2v-5l3-8 8-16 9-10 5-5 11-8 18-6z" fill="#4DA2AD"/>
<path transform="translate(831,532)" d="m0 0h21l3 1 2 10 3 9 5 21 3 9 4 14 1 9 1 2 8-24 4-15 7-22 2-5 2-9h21l5 10 6 23 5 17 3 9 4 15h2l2-11 5-18 4-16 2-5 4-16 3-7 16-1h7l-2 9-18 60-7 25-5 15-1 1h-22l-3-6-6-23-4-11-3-12-6-20-2-1-1 7-5 16-2 7-5 17-6 20-2 6h-22l-4-8-6-20-5-18-3-10-2-7-11-34z" fill="#FCFDFC"/>
<path transform="translate(1105,528)" d="m0 0h10l12 4 11 6 6 7 4 7 3 10 1 8v72l-1 1h-22l-1-72-4-11-3-4-9-4h-15l-8 3-7 8-4 10-1 5-1 64h-21v-109l1-1h19l1 1v12h2v-2h2l1-3 6-5 10-5z" fill="#FAFCFC"/>
<path transform="translate(1356,528)" d="m0 0h11l11 3 12 5 4 2v2l5 2 9 11 1 5-14 8-3 2h-3l-2-5-3-1-4-4-10-5h-16l-10 4-8 7-5 9-2 8v13l5 12 9 10 8 4h19l10-4 7-6 2-5 5 2 14 8 1 5-9 11-4 2-3 3-13 7-10 2h-15l-14-3-10-5-12-11-4-5-7-14-3-15v-10l3-15 7-14 8-10 10-7 11-5z" fill="#FAFCFB"/>
<path transform="translate(1557,528)" d="m0 0h11l12 3 11 6 7 8 2 1 1 6-16 10-4-2v-2h-2l-4-4-5-2h-16l-6 5v8l2 4 10 5 22 7 11 5v2l4 2 6 8 2 8v10l-2 7-6 9-4 5-7 4-9 3-6 1h-16l-13-3-8-5-8-6-6-9 1-4 9-6 8-4 3 2 4 7 10 5h17l8-6v-9l-4-4-8-4-14-4-12-4v-2l-6-2-7-7-4-8-1-3v-15l5-10 9-9 11-5z" fill="#F9FCFB"/>
<path transform="translate(1459,528)" d="m0 0h9l13 3 10 5 5 5 6 7-1 5-12 7h-2v2h-3l-4-4v-2l-4-2-10-3-11 1-5 4-1 2v7l5 5 10 5 23 7 9 6 6 7 3 6 1 4v11l-4 11-8 10-11 5-4 2-7 1h-17l-12-3-10-6-7-7v-2h-2v-3h-2l-1-5 15-10h5v2h2l4 6 6 4 3 1h17l5-3h2l2-4v-9h-2l-5-5-19-6-10-3-11-6-5-6v-2h-2l-3-8v-15l4-9 7-8 5-4 10-4z" fill="#F9FCFB"/>
<path transform="translate(555,496)" d="m0 0h5l1 1v34l8 1h18l1 1v20l-1 2h-27l1 7v44l2 10 2 3 3 1 19 1 1 2v14l-2 6h-22l-7-2-5-2-7-6-5-8-1-5v-66l-3 1h-18v-12l1-11h19v-18l1-12 7-3z" fill="#FDFEFD"/>
<path transform="translate(645,552)" d="m0 0h20l10 5 5 4 6 8 3 8v20l-4 9-9 10-8 5-7 2h-11l-12-4-5-4-7-8-4-9-1-4v-14l4-12 9-10 8-5z" fill="#0B1222"/>
<path transform="translate(1217,552)" d="m0 0h19l10 4 7 6v2h2l6 12v21l-6 12-7 7-11 6h-19l-8-3-12-12-3-6-1-6v-19l4-9 7-8h2v-2z" fill="#0A1121"/>
<path transform="translate(790,481)" d="m0 0h21l1 1v159l-1 1h-21z" fill="#FFFFFE"/>
<path transform="translate(962)" d="m0 0h88l1 6 2 4-2 4-10 1-5 1-1 2v-2l-4-2-5-1-6 4-5 1v-2l-4-1-8-5 1 4-1 1 5 3v2h6l5 5 4 3 5-6 7-1-1 5-1 2 7-3 2-4 9-2 1-5 2-2 14-3 3 4-4 2-3 6h-3l-1-3-3 1-3 8-4 2-2-2-1-2-4 1 3 4-9 3-4 1-2-1v-2l-4-1-7 3h-4l-4 2-4-1-7-2-5-1-5 2-9 1-7-1-7 1-5 2-3-1-1-6 5-1 3-7 12-2-1-2-11-3h-2l-1 3-5-1-2-1 1-3h2l-2-4 2-2 2-1v-4z" fill="#161125"/>
<path transform="translate(1e3 532)" d="m0 0h21l1 1v109h-22l-1-1v-103z" fill="#FFFFFE"/>
<path transform="translate(741,532)" d="m0 0h19l2 1v109h-22v-109z" fill="#FFFFFE"/>
<path transform="translate(662,569)" d="m0 0 4 1 6 4v2l3 1 3 8v10l-3 8-4 2-4 4-5 2-1-2h-5v3l-7 1-4-1-2-2-4-2-4-10-1-4v-7l3-4 4 2 3 2v-5l-3 1-6-2 2-4h9l3 3-1 2h3l-1-3 4-3-4-5 11 1z" fill="#0F1B2C"/>
<path transform="translate(907,569)" d="m0 0 3 1 6 20 5 19 3 7 6 23v4l-6-2-5-6-3-7-1-5-1-7h-2l-2-5v-3l-4 1-2 9-4 14-5 7-5-1-2-3 2-9 6-20 3-8 4-16z" fill="#0D1626"/>
<path transform="translate(7,98)" d="m0 0 5 3v4l5-1 1-3 1 4-1 12h-5l3 3 2 1-3 3h-4l2 2h2l1 3-1 3h-5v3l5 3 1 5 2 1v7l-5-2-3 1-2 4 3 3 4 1-1 4-6 3 1 3 3 1 2 5-6 4h-3l-1 4h-2v-2h-2v-62l4-2 3-2-3-1 1-8 1-2-1-3z" fill="#0A0B19"/>
<path transform="translate(1090,555)" d="m0 0 2 2-1 3 3 1 2-1h12l9 4 5 4 4 1 1 3 1 13v46l-1 9-4-1-2-5-1-15-1-27-1-18-1-5-5-2v-2h-7l-11 3-3 1v3l-3 3-3 7-2-3-3-8v-2h3l3-5-4 1 1-5 4-4z" fill="#0B0C1A"/>
<path transform="translate(981,73)" d="m0 0h3l2 4h3l4 1h2l1-2 2 1 2 6-3 1-2 10 1 6-3 1v2l-2 2 3 3-3 4-3-1v-2l-3 3-5 1-5-2v-2h-2v-2h-2v-2h-2v-7l2-2 5-1v2h2l2 5h3l3-6 4-1v-3l-5-1-9 1-5-3-7-2-2-7-1-4h9l4-2 5 1z" fill="#161125"/>
<path transform="translate(1013,484)" d="m0 0 7 1 6 4 5 7v7l-6 8-8 4-7-1-6-5-3-7 1-9 6-7z" fill="#F9FCFB"/>
<path transform="translate(987,534)" d="m0 0 5 3 1 6-5 7 2 1h-2v5l-2 4-1 12-3 5-1 7h-2l-2 12h-2l-3 11-4 5-2 7-4 3-1-1v-7l15-49 9-30z" fill="#101625"/>
<path transform="translate(747,484)" d="m0 0h6l10 6 2 6v7l-3 6-6 5-8 1-5-2v-2l-3-1v-2h-2l-2-10 2-6 5-6z" fill="#FAFCFB"/>
<path transform="translate(1030,535)" d="m0 0 4 5 2 9v74l-4 13-2 1-2-1v-92z" fill="#0A0B19"/>
<path transform="translate(899,531)" d="m0 0h20l9 6 3 7 2 10 3 8 2 9 2 1 7 2v8h1l-1 10-2 6-2 10-3-2-5-17-2-7-9-31-3-12-3-6h-14l-5-1z" fill="#0F1422"/>
<path transform="translate(1168,597)" d="m0 0 4 4 6 15 4 7 3 3 5 6 12 8 7 3v2l3-1-2 5 9 3 19 1-2 2-15 2-11-3-16-8-11-9-7-8-4-7v-3h-2v-2l-2-1-1-8-4-1 1-7z" fill="#0C0D1B"/>
<path transform="translate(991,513)" d="m0 0 6 1 5 4 4-1 5-2 2-1 9-1v2l-3 2-1 5-6 5-1 2 16 2 1 1v110l-1 1h-23l-1-1v-111l-1-5-4 1-3-3h-3l-2-5zm14 19-1 6v103l1 1h22v-109l-1-1z" fill="#23394A"/>
<path transform="translate(1587,474)" d="m0 0 3 3 2 8-2 5-2 3 7-1 1-2v2h2v5h-3v2h-2v2h-2l-1 2-7-3-4-2 1-2-2 2-1 2-7 1-6-5-1-3 2-5 3-4h2l1 2h2v-3l4-2h10l-2-5z" fill="#161125"/>
<path transform="translate(1097,551)" d="m0 0h15l10 5 5 8 2 7v71h-1l-1-57-1-13-2-2-6-4-5-3-5-2h-12l-4 1-2-3v-3l-2-1 5-3z" fill="#182D3C"/>
<path transform="translate(1e3 539)" d="m0 0h1v24l-1 67-2 1-2-1-1-11-1-36 2-20v-22z" fill="#0B0B19"/>
<path transform="translate(1223,564)" d="m0 0 12 1 8 6 7 9 1 7-2 3-6-13-5-1-9-4v2h-6v2h2l2 4-4 3-5-1v-2l-11-1 2-5 3-2 7-1 2-2-3-2 5-2z" fill="#0A0B19"/>
<path transform="translate(760,510)" d="m0 0v3l-1 3 9 4 1 3-2 3-7 3-2 1 4 1v2h-21l-1 108h-1v-110l15-1 1-3-4-2-2-2 2-1 1-4-9-3 1-2 9 1z" fill="#264C5B"/>
<path transform="translate(1053,533)" d="m0 0h2v108h-2l-1-3v-104z" fill="#264555"/>
<path transform="translate(1056,246)" d="m0 0h5l1 7 2 5h6l6 3 1 2v6l-2 2-11-1-2-2-2-5-2-1h-7l-3-6v-2l5-1z" fill="#161125"/>
<path transform="translate(828,512)" d="m0 0h9v6l2 1-6 3h-2v4l3 3-1 2h20l1 2h-14l-9-1 2 9h-2l-1-3-5 2-2-1-2-6 1-10 2-5z" fill="#17182B"/>
<path transform="translate(981,45)" d="m0 0h2l1 3 3-2v6h-2l-1 2-4-2-1 3-6 4v3l-5 3-8 1-2-6-8-2-1-3 2-2h5l3 2h6l4-6 4 2 2-1v-2z" fill="#161125"/>
<path transform="translate(1210,21)" d="m0 0 4 5 3 5 5 4 4 4 15 4 1 4-8 3-5-4-12-2-5-2 1-3-1-4-7 1-1-2 3-1 2-1-1-9z" fill="#171226"/>
<path transform="translate(918,48)" d="m0 0 10 2 4 3 3-1 6 4 7 2 1 3 1 7-1 2-4-2-1-2h-5l-2-4 1-3-7 1-1 3-4-1-2-5h-7z" fill="#171226"/>
<path transform="translate(881,576)" d="m0 0h2v7l-5 15-3 10-3-3-1-9-3-9v-5h2l-1-3 7-1z" fill="#0F1422"/>
<path transform="translate(993,145)" d="m0 0h6v7l2 1 1-4h5l1 3 2 1v6l-6 2-18-2-2-4-1-3-2-2 1-1h6l4 2z" fill="#161125"/>
<path transform="translate(1154,602)" d="m0 0 5 1 2 4 2 1-2 3-1 13v10l-4 4-4-2v-21l2-9z" fill="#0A0B19"/>
<path transform="translate(8,1184)" d="m0 0 4 1 2 3v4h2l3 6h-2v2h-17v-14z" fill="#0A0B19"/>
<path transform="translate(764,532)" d="m0 0 2 4v2h-2l1 10-1 94h-2v-109z" fill="#316674"/>
<path transform="translate(945,77)" d="m0 0h7l5 2 1 3 4 4-5 5-5-1-9-2h-3l-2-4 2-4h3v-2z" fill="#171226"/>
<path transform="translate(1391,579)" d="m0 0h3v2h2l1 4 3 1v2l3 1 2 6v2l-10-2v2l5 1 2 3-7-2-9-3-2-1v-2l4-1 1-4 2-3z" fill="#161125"/>
<path transform="translate(1068,280)" d="m0 0 10 2 5 5h7l2 5-1 2h-7l-3-2h-9l-6-5z" fill="#171226"/>
<path transform="translate(1297,60)" d="m0 0 4 2 1 3-2 3h-2l2 5-1 4 4 8 4 2 1 5h-2l-2 2-6-3-4-6-2-5h3l1-7h-2l-1-4 1-3 2-1z" fill="#0A1020"/>
<path transform="translate(1522,327)" d="m0 0h4l2 8 7 1 1 5 3 4-2 2-6 1-3-6-4-1-3 1-1-2v-11h2z" fill="#0A1020"/>
<path transform="translate(894,538)" d="m0 0 2 1-3 10-5 17h-3l-2 2-1-1v-12l3-9 3 1 2-5 4-2z" fill="#101625"/>
<path transform="translate(956,540)" d="m0 0 3 1v8l-5 10-4 1 1 7 1 2-2 4v-2l-3-1-1-6 3-12 5-11z" fill="#0A0B19"/>
<path transform="translate(907,569)" d="m0 0 3 1 2 6 1 10-3 1-1 3-5 2v5l-2 1-1-5 3-14z" fill="#0C0E1C"/>
<path transform="translate(1090,20)" d="m0 0 9 1 5 2 2 8-5 1-6-1h-10v-4l3-2z" fill="#171226"/>
<path transform="translate(1117,327)" d="m0 0 3 1 2 2 6 3 2 4 2 2v6l-8 1-1-3 1-6h-6l-9-4 8-4z" fill="#171226"/>
<path transform="translate(1522,311)" d="m0 0 3 1 3 3 4-1 1 11-3-1-1-7-5 2h-7l-2 9-5-2 2-5 1-7 3-1 5-1z" fill="#0A1020"/>
<path transform="translate(1245)" d="m0 0h13v2l-3 2v6h-2l1 3-1 2-4-1v-2l-5-1-1-9z" fill="#161125"/>
<path transform="translate(1024,517)" d="m0 0 9 3-1 5-4 2v2l-3 2h-8l1-2-4-2 8-3 1-4-2-1z" fill="#161125"/>
<path transform="translate(858,536)" d="m0 0 4 1v2h2l1 5-1 4 2 1 1 6-2 3-4-1-3-7-1-11z" fill="#0C0E1C"/>
<path transform="translate(1259,634)" d="m0 0h1v8l23 1v2h2v2l-11-1h-10v2l-5 2-4-1v-2h3l1-4-2-1 1-7z" fill="#0A0B19"/>
<path transform="translate(1164,14)" d="m0 0 4 2 1 4 4 1 2-1 9 3v3h-8l-2-1v-2l-5-1v2l-8 1-1-4 2-2z" fill="#171226"/>
<path transform="translate(645,616)" d="m0 0 6 1h14l2 2 3 1-9 3h-11l-10-3 4-3z" fill="#122132"/>
<path transform="translate(1170,567)" d="m0 0 2 1-2 26-3 1-1-11-4-7 1-4 6-1z" fill="#0B0B19"/>
<path transform="translate(923,22)" d="m0 0h5l2 8h2l-1 3-7 1-5 1-1-4-1-2 3-6z" fill="#171226"/>
<path transform="translate(1421,670)" d="m0 0h9l3 5v3l-3 2h-7l-3-2-1-7z" fill="#171226"/>
<path transform="translate(1014,176)" d="m0 0 6 1 3 2-1 4-5 4h-2v6h-4v-4h2l-1-5-2-7z" fill="#171226"/>
<path transform="translate(1147,443)" d="m0 0 4 1 1 7-3 5-1 1h-7l-1-4 3-5 4-2z" fill="#161125"/>
<path transform="translate(1336,147)" d="m0 0 5 1v2l2 1-2 4h2v2l3 1 1 4-1 2h-6l-2-4v-4l-4-2-1-4 3-1z" fill="#0A1020"/>
<path transform="translate(1189,632)" d="m0 0 7 4 6 4 6 3-1 5-8-2-3-3v-2h-4v-2l-2-1z" fill="#0B1020"/>
<path transform="translate(745,643)" d="m0 0h8l2 1 1 5-9 3-7-3 1-5z" fill="#0A1020"/>
<path transform="translate(1183,546)" d="m0 0 1 3-6 9-4 9-2 12h-1v-11l-2-3 5-10 4-6h3v-2z" fill="#101725"/>
<path transform="translate(1281,120)" d="m0 0h6l2 3 2 8-1 1-7-1-4-4v-6z" fill="#171226"/>
<path transform="translate(917)" d="m0 0h13l1 1v5l-5 1-1-4h-3v3l-1 3 1 2h-5l-3-4 1-4h2z" fill="#151125"/>
<path transform="translate(969,526)" d="m0 0 9 1 8 4v1l-14 1h-9l3-5h3z" fill="#1E2C3E"/>
<path transform="translate(1569,356)" d="m0 0 5 1v3l2 1v4l-5 1-3 1-4 4-5-2 5-4 4-1z" fill="#0A1020"/>
<path transform="translate(1197,600)" d="m0 0 3 1 2 5v2h2v2l4 2 4 4 7 2 3 4-8-1-8-5-7-8-2-4z" fill="#0F1423"/>
<path transform="translate(778,619)" d="m0 0h1l1 16-2-1-1-4-2 1-2 6-2 5-2-1 2-6 1-8h2l-1-7z" fill="#0A1020"/>
<path transform="translate(1385,526)" d="m0 0 7 2 7 6-2 1-1 3-6-1-4-2v-7z" fill="#171629"/>
<path transform="translate(1394,566)" d="m0 0 1 3-3 1 3 2-4 4 2 1-5 2-1 5-3 1-1-6 1-3h-3v-2l6-1 2 1v-6z" fill="#171226"/>
<path transform="translate(1162,42)" d="m0 0 3 1v4l-2 2 2 4-3 3h-9l-1-3 2-3 5-1 2 1v-7z" fill="#171226"/>
<path transform="translate(798,643)" d="m0 0 7 1 3 3-1 4-7 1-10-2v-2l8 1-2-5z" fill="#0A1020"/>
<path transform="translate(1146,4)" d="m0 0 10 1v5l3 1-2 2-6-1-2 2-5-1 1-3 2 1-1-3-2-1v-2z" fill="#171226"/>
<path transform="translate(1458,256)" d="m0 0h4l1 2 7 3-1 4 2 4-4 2-2 2-3-11-4-3z" fill="#0A1020"/>
<path transform="translate(536,554)" d="m0 0h3v62h-1l-1-57 1-2-17-1v-1z" fill="#101C2D"/>
<path transform="translate(614,910)" d="m0 0h7v4l-4 4 1 4-5-2v-2l-5-1 1-4z" fill="#0A1020"/>
<path transform="translate(8,53)" d="m0 0 4 1v2l5 1 2 5-1 3h-2l-1 2-2-4-2-1-4-4-1-4z" fill="#0B0B19"/>
<path transform="translate(954,104)" d="m0 0h2l3 5 4 3 1 2-2 3-6 2-3-8v-5z" fill="#171226"/>
<path transform="translate(1278,103)" d="m0 0 10 3 3 5-1 2-5 1-7-6-1-4z" fill="#171226"/>
<path transform="translate(1625,371)" d="m0 0 4 1 1 4-2 3h-2l1 6-4-1v2l-3-1-1-3 2-3 3-2-2-5z" fill="#0A1020"/>
<path transform="translate(876,587)" d="m0 0 2 3-1 3-3 1v3l3 1-1 8-2 2-2-3-1-13z" fill="#152434"/>
<path transform="translate(1250,450)" d="m0 0 5 2 2 7-2 4-2-3-10-4 4-1 2-2z" fill="#171226"/>
<path transform="translate(1033,200)" d="m0 0 8 2 1 4-9 3-2-1v-6z" fill="#171226"/>
<path transform="translate(501,741)" d="m0 0 4 1 3 4-1 4h-6l-3-3 1-5z" fill="#101C2D"/>
<path transform="translate(1062,233)" d="m0 0 5 1v2l4 1 1 4-9 2-1-1z" fill="#171226"/>
<path transform="translate(1520,638)" d="m0 0 7 6 3 2v2l-11-2-1-3h-4v-3h2v2h3z" fill="#161125"/>
<path transform="translate(1199,74)" d="m0 0h6l5 5-3 3-7-2z" fill="#161125"/>
<path transform="translate(944,22)" d="m0 0 8 1 2 4h2v2l-8 2-4-7z" fill="#171226"/>
<path transform="translate(1169,446)" d="m0 0 2 2-8 8-4-1v-3l2-3z" fill="#171226"/>
<path transform="translate(1246,22)" d="m0 0 8 1 1 5-4 1-7-1 1-5z" fill="#171226"/>
<path transform="translate(1480,253)" d="m0 0 6 1v2h-2l-1 2-4 2h-3v4l-3 1-1-4 1-2h-2v-2l8-2z" fill="#0A1020"/>
<path transform="translate(1360,183)" d="m0 0h4v2l5 1v2l-6 3-4-1-1-5z" fill="#0A1020"/>
<path transform="translate(1070,21)" d="m0 0 7 2 1 5-5 1-4-2-1-5z" fill="#171226"/>
<path transform="translate(1154,574)" d="m0 0 4 4-1 7-2 5-3-1v-5l1-5z" fill="#0A0B19"/>
<path transform="translate(621,580)" d="m0 0h1l1 6 2 3v14l-2-2-2-7z" fill="#264B5A"/>
<path transform="translate(1499,314)" d="m0 0 3 2 1 11-2 4h-1l-2-7-1-2z" fill="#0A1020"/>
<path transform="translate(941)" d="m0 0h10l-3 5-5 3-3-4z" fill="#161125"/>
<path transform="translate(1501,303)" d="m0 0h2l1 5 3 1-4 3h-2l-1 2-2-7-1-3z" fill="#0A1020"/>
<path transform="translate(1412,192)" d="m0 0 3 1 2 5-3 6h-2l-2-7z" fill="#0A1020"/>
<path transform="translate(956,554)" d="m0 0 1 2-3 10-2 8h-1v-6l-1-4v-4l4-2v-3z" fill="#1A303F"/>
<path transform="translate(1463,274)" d="m0 0h5l1 5-3 4v-2l-5-2-1-3z" fill="#0A1020"/>
<path transform="translate(988,53)" d="m0 0 1 4 5-3 4 2 1 3-3 2h-3l-1-2h-7l1-2h2z" fill="#161125"/>
<path transform="translate(1119,22)" d="m0 0h5l6 3 3 5-3 1-6-5-5-1z" fill="#161125"/>
<path transform="translate(1332,2)" d="m0 0 5 1v5l-4 3v-2l-4-2 1-4z" fill="#0A1020"/>
<path transform="translate(1608,488)" d="m0 0 4 1-1 5-1 1h-7v-4z" fill="#171226"/>
<path transform="translate(1715,321)" d="m0 0 7 1 2 3-1 2h-8l-1-4z" fill="#0A1020"/>
<path transform="translate(1351,147)" d="m0 0 6 1 4 4-1 3-6-4-2 4h-2z" fill="#0A1020"/>
<path transform="translate(645,616)" d="m0 0 7 2-1 4h10v1h-11l-10-3 4-3z" fill="#254A59"/>
<path transform="translate(1,183)" d="m0 0h3v2h2l2 4-6 3-2-1v-6z" fill="#0A0B19"/>
<path transform="translate(633,610)" d="m0 0 8 5 3 1 1 3h-7l-5-5z" fill="#172939"/>
<path transform="translate(1398,567)" d="m0 0 3 2-1 3h-2v2l-3 2h-4l1-3 2-1-3-3 5-1z" fill="#111123"/>
<path transform="translate(922)" d="m0 0h8l1 1v5l-5 1-1-4-4-2z" fill="#171226"/>
<path transform="translate(18,88)" d="m0 0 3 4-1 2-8 2v-6z" fill="#0B0B19"/>
<path transform="translate(1228,5)" d="m0 0h4l-1 7h-2l-1 2-3-4 1-4z" fill="#171226"/>
<path transform="translate(907,569)" d="m0 0 3 1 1 4-3 1v6l-3 2-2 5-1-2z" fill="#254554"/>
<path transform="translate(1621,507)" d="m0 0 4 5v5h-4l-3-6 1-3z" fill="#171226"/>
<path transform="translate(931,7)" d="m0 0 1 2h-2v3h6l1 4-4 2-5-5 1-5z" fill="#171226"/>
<path transform="translate(935,585)" d="m0 0h2v2h3l2 4-3 4-1 4-3-10z" fill="#142333"/>
<path transform="translate(1547,339)" d="m0 0 8 1 1 4-4 3-2-1v-4h-2z" fill="#0A1020"/>
<path transform="translate(1469,283)" d="m0 0 6 2 3 3v2l-5 1-4-5z" fill="#0A1020"/>
<path transform="translate(1226,23)" d="m0 0h6l3 7-7-1v-3l-3-1z" fill="#171226"/>
<path transform="translate(1208,616)" d="m0 0h6l6 3 2 3-8-1-6-4z" fill="#162534"/>
<path transform="translate(760,643)" d="m0 0 3 1 5 2v2l-10 2-1-2z" fill="#0A1020"/>
<path transform="translate(688,628)" d="m0 0h2v14l-3-3v-5l-2-3zm-2 13 2 1z" fill="#2F5262"/>
<path transform="translate(998,495)" d="m0 0 2 2v6l-4 1-2-2 1-5h2z" fill="#0B0B19"/>
<path transform="translate(1397,193)" d="m0 0h5l2 4-2 1-2 3-5-4 1-2z" fill="#0A1020"/>
<path transform="translate(1293,93)" d="m0 0 7 2-1 4-4 2-2-2v-3l-2-1z" fill="#0A1020"/>
<path transform="translate(728,520)" d="m0 0 8 2v3l-8 1-1-3z" fill="#101C2D"/>
<path transform="translate(1481,275)" d="m0 0 3 1-1 3h3l1 3-5 1-3-3 1-4z" fill="#0A1020"/>
<path transform="translate(1655,355)" d="m0 0 2 1 2 5-5 4h-3l2-5z" fill="#0A1020"/>
<path transform="translate(988,16)" d="m0 0 11 1 1 3-12-1z" fill="#0A1020"/>
<path transform="translate(587,637)" d="m0 0 1 3h2v3h2l-1 4-6-2z" fill="#1B3444"/>
<path transform="translate(1081,563)" d="m0 0 5 1-2 5-2 1-2-1-2 4 1-6z" fill="#162837"/>
<path transform="translate(1553,347)" d="m0 0h3l1 6-4 3-1-1v-6z" fill="#0A1020"/>
<path transform="translate(1195,586)" d="m0 0 2 4 1 9-4-4v-7z" fill="#0C0C1A"/>
<path transform="translate(1236,13)" d="m0 0 6 2-1 4-4 1-1-4-2-1h2z" fill="#151125"/>
<path transform="translate(136,629)" d="m0 0 2 1-1 4-5 1-2-1 1-4z" fill="#0A0B19"/>
<path transform="translate(877,590)" d="m0 0h2l-1 8-5-1 1-4h3z" fill="#0C0C1B"/>
<path transform="translate(681,539)" d="m0 0 6 1 1 2 2-3v8l-3-1-5-5z" fill="#264A58"/>
<path transform="translate(764,532)" d="m0 0 2 4v2h-2l1 10-1 7h-1v-21z" fill="#151427"/>
<path transform="translate(892,533)" d="m0 0h4v6l-5 1-1-5z" fill="#0B0C1A"/>
<path transform="translate(1592,371)" d="m0 0 2 2 1 4-8-1-2-3z" fill="#0A1020"/>
<path transform="translate(1572,346)" d="m0 0 3 2 4 1-2 3h-3l-1 3-1-3-1-5z" fill="#0A1020"/>
<path transform="translate(1734,168)" d="m0 0h2v11l-3-1-1-5z" fill="#171226"/>
<path transform="translate(1259,634)" d="m0 0h1v8l5 1v1h-6l-2-2 1-7z" fill="#0C0C1B"/>
<path transform="translate(1512,634)" d="m0 0 7 2-1 4-6-2z" fill="#171226"/>
<path transform="translate(956,545)" d="m0 0h3l-1 5-2 5h-2v-6z" fill="#121A2B"/>
<path transform="translate(1079,535)" d="m0 0 1 3 4-1-1 3-5 4h-1l1-8z" fill="#0B0D1C"/>
<path transform="translate(1492,297)" d="m0 0h4l1 4-2 2-3 1-2-4h2z" fill="#0A1020"/>
<path transform="translate(1257,41)" d="m0 0h5l1 5h-6l-2-4z" fill="#171226"/>
<path transform="translate(1613,546)" d="m0 0 2 1v2h2l-2 4-3 3-1-3z" fill="#171226"/>
<path transform="translate(1313,494)" d="m0 0h6l2 4-4 1-4-2z" fill="#171226"/>
<path transform="translate(1006,169)" d="m0 0 4 4-2 3-4-1v-5z" fill="#171226"/>
<path transform="translate(1200,27)" d="m0 0h3l2 6h-3l-5-3z" fill="#171226"/>
<path transform="translate(939,599)" d="m0 0h2v3h2l1-2v6l-2 2-3-5z" fill="#1F3D4C"/>
<path transform="translate(1394,566)" d="m0 0 1 3-3 1 3 2-5 2-1-3v-3z" fill="#1B2234"/>
<path transform="translate(1142,540)" d="m0 0 4 5 3 3v4h-2l-6-11z" fill="#0F0E1D"/>
<path transform="translate(1615,392)" d="m0 0 3 3-2 5-5-2 3-5z" fill="#161125"/>
<path transform="translate(1132,346)" d="m0 0 6 4 1 5-8-6-3-2z" fill="#171226"/>
<path transform="translate(1,121)" d="m0 0 4 2-3 7-2-2v-6z" fill="#0A1020"/>
<path transform="translate(1195,55)" d="m0 0h4l2 6h-3l-4-2z" fill="#171226"/>
<path transform="translate(1079,13)" d="m0 0 4 1 1 4-4 2-3-6z" fill="#171226"/>
<path transform="translate(956,800)" d="m0 0h4l-1 5h-2l-1 2-2-5z" fill="#2F1730"/>
<path transform="translate(955,640)" d="m0 0 4 1v4l-4 1-3-2v-2h3z" fill="#0A1020"/>
<path transform="translate(536,554)" d="m0 0h3v5l-1-2-17-1v-1z" fill="#1E3948"/>
<path transform="translate(1619,435)" d="m0 0h8v5l-2 1-1-2-5-3z" fill="#171226"/>
<path transform="translate(1219,645)" d="m0 0h11l-2 3-9-1z" fill="#0B0C1B"/>
<path transform="translate(1210,422)" d="m0 0h6l3 2-1 3-8-2z" fill="#171226"/>
<path transform="translate(1433,250)" d="m0 0 4 2 2 4h-4l-3-3z" fill="#0A1020"/>
</svg>
