<?xml version="1.0" encoding="UTF-8"?>
<svg version="1.1" viewBox="0 0 2000 2000" width="500" height="500" xmlns="http://www.w3.org/2000/svg">
<path transform="translate(915,521)" d="m0 0h109l54 5 29 4 36 8 32 9 35 12 24 10 21 10 22 12 24 16 13 10 10 9 8 7 20 20 9 11 13 18 9 15 12 25 9 24 7 23 5 24 3 22 1 12v40l-4 24-8 26-12 25-10 15-10 13-11 12-11 10-17 13-13 8-10 6-23 10-26 8-26 6-30 4-23 2h-28l-39-4-45-7-19-3-25-3-20-1h-60l-31 2-106 12-29 2h-43l-24-2-23-4-21-5-27-10-20-10-16-10-16-12-11-9-14-14-12-16-12-19-9-21-6-21-4-25-1-9v-26l4-38 5-25 8-29 8-20 12-25 10-17 10-14 12-14 12-13 8-8 11-9 9-8 20-14 26-15 16-8 19-9 36-14 38-12 31-8 24-5 28-4zm31 21-43 4-35 4-37 6-34 7-28 8-32 11-26 12-23 12-30 20-14 11-14 12-19 19-11 14-10 15-12 22-9 20-2 8 4-1 5-6 14-23 9-12 11-14 16-17 8-8 8-7 12-10 16-11 21-12 16-8 20-9 30-11 33-10 40-10 32-6 44-6 24-2h79l36 3 42 6 27 5 30 7 31 8 32 11 29 12 23 12 22 13 12 9 18 14 17 16 9 10 13 17 14 19 4 3h2l-1-6-12-22-10-15-11-14-9-10-7-8-13-12-10-9-14-10-15-10-22-12-24-12-28-11-24-8-38-10-29-6-23-4-33-4-21-2-20-2zm-184 229-17 4-16 8-13 9-12 11-8 10-7 14-2 11 2 10 4 6 5 4 7 2h10l7-4 10-10 7-8 12-10 10-5 12-3h20l11 3 12 6 11 9 15 15 7 4 8 1 9-4 6-5 5-10v-9l-4-10-10-14-9-10-12-9-15-8-16-5-16-3zm375 0-15 4-14 7-13 10-12 12-10 14-4 9-1 4v9l4 8 8 7 5 2h11l6-4 10-9 9-9 14-9 9-4 9-2h20l13 4 12 7 11 9 13 13 12 5h8l6-4 4-5 4-13v-10l-6-11-9-10-7-8-12-9-16-8-10-4-25-5z" fill="#1A0E5E"/>
<path transform="translate(953,269)" d="m0 0h68l26 1 15 4 12 6 11 9 7 8 8 16 4 15 1 13 3 8 7 10 8 5 43 12 53 18 24 10 29 14 23 13 16 10 14 10 12 9 13 11 17 16 20 20 9 11 11 13 12 17 10 15 6 8h3l1-2 3-56 2-29 1-25 2-12 5-12 8-9 4-2h13l10 4 9 10 13 21 8 16 6 20 4 20 4 32 7 73 3 21 4 17 5 12 7 13 13 19 6 14 4 16 3 23 2 36v92l-2 27-5 34v7l15 13 11 9 18 18 8 11 8 16 4 13 2 15v8l-5 23-6 18-12 25-12 21-10 16-11 15-13 17-12 14-14 15-14 14-8 7-16 15-14 11-13 11-13 10-20 15-36 26-34 24-14 10-14 12-7 8-6 13-18 45-12 27-13 26-11 20-15 24-11 16-14 19-14 17-9 11-14 15-7 8h-2l-2 4-8 7-10 10-11 9-9 8-18 13-24 15-23 12-19 8-24 8-28 7-17 3-11 1h-48l-16-2-24-5-24-7-25-9-16-7-22-12-16-10-17-13-13-11-10-9-8-7-28-28-7-8-13-15-12-15-11-15-16-24-10-17-10-18-15-29-14-30-2-3-5 1-10 10-7 8-15 15-8 7-14 13-14 11-15 11-24 14-15 7-15 5-16 3h-24l-11-3-12-5-11-6-13-10-12-12-7-11-6-12-5-16-1-7v-21l3-19 7-26 8-24 10-24 11-23 14-24 10-16 14-19 11-14 14-17 24-28 9-11 11-11 7-8 25-25 7-8 9-9 7-8 12-13 7-8-3-6-9-11-12-14-10-11-9-11-12-13-7-8-7-6-6-3-7-1h-38l-19-3-15-6-16-9-13-11-10-11-11-18-6-14-3-15-2-26v-139l2-25 3-17 9-20 14-26 8-16 4-15 5-41 8-78 2-21 4-23 5-16 8-15 9-10 9-8 13-7 4-1h11l6 4 4 5 5 12 2 10 4 52 2 63 5-2 1-2h2l2-4 8-10 12-17 9-12 9-11 12-13 23-23 8-7 16-13 23-16 23-14 21-12 23-11 33-13 37-13 48-13 8-6 7-8 5-12 4-24 8-16 7-9 5-5 8-6 11-5 16-4zm-41 29-10 4-11 8-7 7-8 16-3 13 1 47 4 13 6 11 5 6 13 10 12 9 19 14 17 12 10 4 10 2 12-1 13-5 12-8 16-12 14-11 11-8 9-8 9-12 4-11 1-5v-50l-4-14-6-11-6-7-10-7-15-6zm195 85-3 9-4 16-8 16-8 9-11 9-28 21-17 13-17 12-16 8-14 4-5 1h-9l-16-4-16-8-17-12-21-16-28-21-12-11-7-11-5-11-5-23-11 1-37 9-30 9-31 11-24 10-23 11-27 16-16 11-16 12-11 9-12 11-13 12-2 4h-2l-7 8-12 13-10 13-13 18-16 27-10 18-11 23-10 26-7 24-7 29-6 38-3 35-1 33 2 32 3 24 6 29 9 29 8 20 14 29 11 19 11 16 10 13 9 11 10 11 7 8 7 7 8 7 13 11 17 13 15 10 20 12 23 12 25 11 34 12 33 10 38 9 30 5 32 4 21 2 36 2h93l41-2 47-5 30-5 40-9 31-9 32-11 32-14 17-9 12-6 23-14 12-9 14-11 11-10 8-7 21-21 9-11 12-16 12-18 12-21 12-25 10-27 8-29 5-25 4-32 1-13v-25l-3-35-3-24-4-24-7-33-9-30-13-32-17-35-13-21-11-16-10-13-9-11-11-12-18-18-8-7-11-9-13-10-17-12-27-16-23-12-30-13-36-13-29-9zm-640 67-7 6-11 19-5 11-3 16-5 44-7 68v17l5 8 4 3 4 1h11l10-4 9-6 7-7 2-4 1-6-1-46-3-46-2-39-2-23-3-11zm1009 3-4 3-1 4-4 49-2 48-2 34v33l2 5 6 5 11 4 17 3h8l5-3 3-3 1-3v-9l-6-65-3-31-4-29-7-22-6-12-9-10zm-1014 210-20 5-15 6-12 7-13 13-7 9-7 15-3 12-1 13-1 41v53l1 59 1 19 3 20 5 13 6 11 10 12 15 11 15 7 14 4 12 1h10l13-1 2-1-1-9-13-35-9-29-7-31-5-35-1-18v-50l2-24 4-27 10-59 1-11-1-1zm1013 1v12l6 32 5 32 3 28 2 52v12l-2 30-4 29-5 24-7 24-9 25-9 22v5l7 2h31l16-5 17-9 11-9 9-10 8-13 3-15 3-35 2-57v-48l-1-42-1-20-4-16-8-15-9-10-8-8-13-8-15-5-19-4zm93 314-8 2-10 6-15 11-16 8-17 6-15 3-38 4-13 5-8 6-12 11-30 30v2l-4 2v2l-3 1-7 8-17 17-7 8-7 7 1 7 10 23 7 21 5 21 3 17 1 13v53l-5 37-4 22 1 5 2 1 6-3 17-12 14-11 13-10 17-14 13-10 14-11 10-8 13-11 11-9 10-9 11-9 7-7 8-7 17-16 11-11 7-8 12-14 13-19 8-13 10-19 10-25 5-18 2-13v-13l-4-17-8-16-9-10-9-7-14-7zm-973 142-8 6-15 13-11 10-8 7-19 19-7 8-14 15-7 8-13 15-9 11-12 15-15 20-12 17-10 15-12 19-12 20-9 19-6 13-8 24-5 23-2 14v23l4 15 5 12 7 10 7 8 12 9 14 6 13 3h15l17-4 15-6 18-10 16-11 12-9 11-9 12-11 8-7 11-11 7-8 11-11 7-11 1-3v-15l-7-25-9-32-6-27-4-31-1-9v-46l4-28 14-56 4-14-1-3zm30 13-7 10-9 19-6 18-3 18-2 22v32l2 25 5 33 6 27 9 31 8 22 13 30 3 6 6-1 26-8 62-16 22-5 2-1-2-16-4-21v-22l3-14 6-12 8-10 10-8 12-6 14-4 25-2 28-2 111-3 26-1h68l39 4 25 4 15 4 12 5 11 7 8 8 8 14 4 18v15l-6 36 1 4 19 6 55 15 40 11h5l5-10 13-35 9-28 8-32 6-33 3-27v-40l-2-20-4-24-5-16-8-17-7-9-7 1-42 16-24 9-28 9-43 12-40 9-42 8-37 5-33 3-22 1h-60l-36-2-46-5-36-6-33-7-44-11-34-10-35-12-50-20zm329 158-64 4-60 5-19 3-12 5-9 7-7 10-4 13v12l7 27 14 43 12 29 11 22 12 18 8 10 9 10 16 13 18 12 16 8 20 8 17 4 15 2h40l17-3 20-6 18-8 16-9 16-12 13-12 12-13 11-15 12-22 12-27 13-35 7-22 4-16 1-6v-20l-4-10-7-8-10-6-19-5-25-3-76-5-39-2zm223 122-7 15-9 21-9 19-8 14-10 16-13 17-12 13-13 11-17 12-16 9-19 8-20 6-23 4-19 2h-21l-31-4-20-5-22-8-16-8-17-11-10-8-10-9-11-12-14-19-10-16-8-14-15-34-8-11-5-3h-10l-25 6-42 11-21 8-12 6 1 5 10 21 13 23 15 24 13 19 14 19 8 10 9 11 22 24 19 19 11 9 14 12 11 8 17 12 19 11 16 8 21 8 21 6 19 4 23 3h44l30-4 28-7 25-9 16-8 15-8 18-12 13-10 13-11 8-7 13-12 10-9 16-17 9-10 11-14 10-12 14-19 14-21 15-25 8-14 8-16 5-13-5-3-27-8-50-14-33-9z" fill="#1A0E5E"/>
<path transform="translate(911,1315)" d="m0 0h142l13 2 16 8 8 7 7 11 5 12 2 9-3 2-181 1-11 4-5 5-4 8-2 6-1 8v17l3 15 5 10 9 7 2 1h132l-1-14-25-1 1-4 10-21 11-19 4-6h54l2 1 1 45-1 27-3 13-6 10-9 9-15 9-7 2-22 1h-129l-17-2-16-6-9-6-9-8-8-10-6-10-5-15-2-20v-27l2-23 4-14 7-13 11-12 13-9 10-5 13-4z" fill="#1A0E5E"/>
<path transform="translate(936,313)" d="m0 0 79 1 12 1 10 5 7 9 4 10v2l-2 1-107 1-7 3-4 5-3 7-1 15 2 9 6 8 8 3h44l27-1v-6l-1-2h-9l1-6 13-25h33v46l-4 10-8 7-10 5-6 2-9 1h-66l-17-2-14-4-11-8-7-11-3-11-1-8v-16l2-19 3-9 6-8 7-6 12-6z" fill="#1A0E5E"/>
</svg>
